<svg width="233" height="59" viewBox="0 0 233 59" fill="none" xmlns="http://www.w3.org/2000/svg">
<path fill-rule="evenodd" clip-rule="evenodd" d="M41.1142 1.93742C40.3531 2.52546 37.5985 3.66695 34.9927 4.47524C28.838 6.38408 18.2148 6.04735 12.4406 3.76084C10.3697 2.94055 8.61771 2.34121 8.54713 2.42945C7.6068 3.59142 5.52201 8.79413 5.80778 9.26569C6.01674 9.61089 7.81922 10.4735 9.81267 11.183L13.437 12.472L6.62633 12.6746C0.818968 12.8476 -0.12344 13.0382 0.225984 13.9679C0.451553 14.5679 0.636298 16.6208 0.636298 18.5303V22.0021H3.74998H6.86366V34.0163V46.0306L5.30682 45.6324C3.93334 45.2809 3.55347 45.7397 2.07897 49.5263C1.07913 52.0959 0.662592 54.0669 1.04108 54.4361C2.22082 55.5854 8.88548 57.2118 15.755 58.0265C29.5998 59.6685 43.6134 56.071 53.7391 48.2754L55.9851 46.5459L53.0804 42.9217C51.4834 40.9281 50.0927 39.1753 49.9909 39.0256C49.8899 38.876 49.0181 39.2798 48.0549 39.9243L46.3036 41.0947V31.5484V22.0021H49.4173H52.531V17.4368V12.8716L44.7468 12.6718L36.9626 12.472L42.3251 9.85938C45.2747 8.42281 47.6875 6.98765 47.6875 6.66998C47.6875 5.54261 44.1642 0.824872 43.338 0.846756C42.8758 0.858756 41.8753 1.35008 41.1142 1.93742ZM146.629 11.3242C141.38 13.0812 138.5 15.6678 136.313 20.5902C134.676 24.2752 134.403 31.1728 135.716 35.6859C136.915 39.8036 141.942 44.7627 146.13 45.9586C150.083 47.0881 157.236 46.6525 160.172 45.103C165.727 42.1727 169.007 36.2457 169.051 29.0614C169.099 21.2108 166.169 15.7913 160.192 12.6775C157.12 11.0771 149.607 10.3274 146.629 11.3242ZM209.519 11.6814C205.638 13.0961 202.859 15.4391 200.78 19.0478C199.08 21.9979 198.875 23.0412 198.879 28.7084C198.886 37.7564 201.308 42.0435 208.215 45.2385C215.397 48.5599 225.416 46.2289 229.662 40.2476C234.892 32.8826 233.85 21.126 227.424 14.9929C223.296 11.0538 215.298 9.57418 209.519 11.6814ZM69.1373 16.0017C69.1373 20.4258 69.1996 20.5902 70.8671 20.5902H72.597V28.7084V36.8267H70.8671C69.1996 36.8267 69.1373 36.9911 69.1373 41.4152V46.0038H81.2461H93.3549V42.4741V38.9444H86.7435H80.1321L80.3431 35.5913L80.5542 32.2381L86.2626 32.0334L91.971 31.828V28.3272V24.8258H86.0896H80.2082V21.6491V18.4724H86.7815H93.3549V14.9428V11.4131H81.2461H69.1373V16.0017ZM100.274 28.7084V46.0038L109.096 45.9882C119.434 45.9699 122.087 45.0931 126.033 40.3902C131.976 33.3055 131.044 20.927 124.127 15.1108C120.598 12.1438 117.477 11.4131 108.324 11.4131H100.274V28.7084ZM177.91 15.8252L178.116 20.2373L181.403 20.4526L184.69 20.6679V28.4261C184.69 35.8221 184.606 36.2697 182.907 38.0034C181.443 39.4972 180.671 39.7563 178.583 39.4527C177.184 39.2494 175.562 38.8851 174.976 38.643C174.207 38.3239 173.486 39.0962 172.375 41.43L170.837 44.6583L173.244 45.684C176.73 47.17 182.814 46.9942 186.043 45.3141C191.757 42.3393 192.984 38.379 192.989 22.8845L192.993 11.4131H185.348H177.705L177.91 15.8252ZM108.347 18.2374C108.093 18.4957 107.885 23.4577 107.885 29.264V39.8198L112.137 39.5064C115.932 39.2261 116.629 38.9261 118.615 36.7144C123.45 31.3324 121.891 21.3583 115.811 18.7661C113.365 17.7242 109.143 17.4248 108.347 18.2374ZM150.093 18.2268C145.521 19.7636 143.174 23.373 143.174 28.868C143.174 33.1925 145.041 36.8288 148.076 38.4136C154.611 41.8275 160.467 37.241 160.467 28.7084C160.467 23.5551 158.746 20.2563 155.289 18.7831C152.826 17.7326 151.869 17.6303 150.093 18.2268ZM212.416 19.0033C209.095 20.7307 207.386 23.4274 206.997 27.5507C206.325 34.6799 211.166 40.3775 217.064 39.4012C225.924 37.9343 227.29 22.3388 218.872 18.7506C215.907 17.487 215.283 17.5117 212.416 19.0033ZM14.1441 24.9155L17.2426 27.8296V38.0536V48.2776L24.6808 47.9613C28.7722 47.7869 32.975 47.2836 34.0219 46.8417L35.9247 46.0391V34.0206V22.0021H23.4852H11.0464L14.1441 24.9155Z" fill="white"/>
</svg>
