<svg width="390" height="844" viewBox="0 0 390 844" fill="none" xmlns="http://www.w3.org/2000/svg">
<g clip-path="url(#clip0_326_545)">
<rect width="390" height="844" fill="white"/>
<rect x="-6" y="-5" width="402" height="184" fill="#93BE93"/>
<path d="M43.8453 91.5846C42.8641 99.1103 47.7455 108.145 52.19 108.299C48.6316 107.463 46.4198 98.0113 48.2625 90.7254C50.1053 83.4395 40.0312 71.1027 37 69.485C40.6132 72.3478 45.0718 82.1773 43.8453 91.5846Z" fill="#5F2F6B"/>
<path d="M140.819 113.043C140.92 125.095 134.84 140.29 130.273 141.073C134.015 139.294 137.413 123.745 136.402 112.184C135.39 100.623 147.18 79.4647 150.477 76.485C146.435 81.548 140.693 97.9782 140.819 113.043Z" fill="#5F2F6B"/>
<path d="M110.493 101.565C107.223 106.807 105.815 115.076 107.602 116.64C106.442 114.861 109.118 107.155 112.653 102.372C116.189 97.5889 116.697 85.1845 116.054 82.9999C116.465 86.2946 114.579 95.0136 110.493 101.565Z" fill="#5F2F6B"/>
<path d="M116.493 164.565C113.223 169.807 111.815 178.076 113.602 179.64C112.442 177.861 115.118 170.155 118.653 165.372C122.189 160.589 122.697 148.185 122.054 146C122.465 149.295 120.579 158.014 116.493 164.565Z" fill="#5F2F6B"/>
<path d="M63.2965 155.565C66.5657 160.807 67.9741 169.076 66.1873 170.64C67.3469 168.861 64.6713 161.155 61.1357 156.372C57.6 151.589 57.0918 139.185 57.7354 137C57.3237 140.295 59.2101 149.014 63.2965 155.565Z" fill="#5F2F6B"/>
<path d="M85.2965 38.5654C88.5657 43.8069 89.9741 52.0761 88.1873 53.6404C89.3469 51.8614 86.6713 44.1549 83.1357 39.3719C79.6 34.5889 79.0918 22.1846 79.7354 20C79.3237 23.2947 81.2101 32.0137 85.2965 38.5654Z" fill="#5F2F6B"/>
<path d="M4.56338 27.6741C9.82115 34.914 11.0578 46.9777 7.42612 49.6112C9.91376 46.7656 6.19522 35.756 0.357247 29.2439C-5.48073 22.7317 -4.31482 4.36084 -2.72949 1C-4.0683 5.97295 -2.00882 18.6242 4.56338 27.6741Z" fill="#5F2F6B"/>
<path d="M188.676 41.7528C179.263 54.714 177.049 76.3107 183.551 81.0252C179.097 75.9311 185.754 56.2213 196.205 44.5631C206.657 32.9048 204.57 0.0166817 201.731 -6C204.128 2.90272 200.441 25.5514 188.676 41.7528Z" fill="#5F2F6B"/>
<path d="M87.0599 130.871C86.9966 138.433 90.8114 147.968 93.677 148.459C91.3291 147.343 89.197 137.586 89.8316 130.332C90.4661 123.078 83.0682 109.801 81 107.932C83.5357 111.109 87.1389 121.418 87.0599 130.871Z" fill="#5F2F6B"/>
<path d="M130.278 13.1724C130.392 26.8493 123.493 44.0928 118.31 44.9812C122.557 42.9624 126.413 25.3167 125.265 12.1974C124.117 -0.921798 137.497 -24.9332 141.237 -28.3147C136.651 -22.569 130.135 -3.92362 130.278 13.1724Z" fill="#5F2F6B"/>
<path d="M38.7639 -16.842C38.6098 1.58222 47.9039 24.8111 54.8853 26.0079C49.1651 23.2884 43.9706 -0.482391 45.5166 -18.1554C47.0626 -35.8285 29.0389 -68.1745 24 -72.7297C30.1778 -64.9897 38.9565 -39.8723 38.7639 -16.842Z" fill="#5F2F6B"/>
<path d="M147 46.9582C147 74.5971 124.613 97 97 97C69.3873 97 47 74.5971 47 46.9582C47 43.4625 47.3592 41.0937 47.9323 39.5442C48.4842 38.0519 49.168 37.4738 49.817 37.2192C50.5633 36.9263 51.6856 36.8934 53.3858 37.3277C55.0638 37.7563 57.0517 38.5724 59.3783 39.6682C60.8907 40.3805 62.5509 41.2156 64.325 42.1081C67.8533 43.8829 71.8325 45.8846 75.9981 47.5988C82.3413 50.2093 89.4553 52.3158 97 52.3158C104.545 52.3158 111.659 50.2093 118.002 47.5988C122.167 45.8846 126.147 43.8829 129.675 42.1081C131.449 41.2156 133.109 40.3805 134.622 39.6682C136.948 38.5724 138.936 37.7563 140.614 37.3277C142.314 36.8934 143.437 36.9263 144.183 37.2192C144.832 37.4738 145.516 38.0519 146.068 39.5442C146.641 41.0937 147 43.4625 147 46.9582Z" fill="#5F2E6B" stroke="url(#paint0_linear_326_545)" stroke-width="4"/>
<g filter="url(#filter0_f_326_545)">
<circle cx="97" cy="256" r="129" fill="#5F2E6B"/>
</g>
<path d="M395.5 171H-3V850.5H395.5V171Z" fill="#595959"/>
<path d="M39.4201 868.219L-5.57256 876.139L22.0592 863.392L-17.842 830.141L61.8723 834L-5.58702 796.184L62.9772 779.646L35.3002 770.637L113.804 713.885L62.8111 770.451L86.5957 777.907L27.0576 802.088L121.072 844.567L9.4047 843.138L39.4201 868.219Z" fill="#4B4B4B"/>
<path d="M55.7175 237.446L84.3041 224.299L57.3496 230.393L49.9243 218.576L5.38893 232.806L9.88769 238.002L-0.225009 236.873L2.62044 232.289L-38.3857 223.138L-3.69416 234.719L-18.4425 239.122L27.2421 241.566L12.5024 233.789L47.7539 226.496L55.7175 237.446Z" fill="#4B4B4B"/>
<path d="M166.587 230.593L138.001 243.74L164.955 237.646L172.38 249.464L216.916 235.233L212.417 230.038L222.53 231.166L219.684 235.75L260.69 244.901L225.999 233.32L240.747 228.917L195.063 226.473L209.802 234.25L174.551 241.543L166.587 230.593Z" fill="#4B4B4B"/>
<path d="M259.831 591.714L201 618.771L256.473 606.23L271.754 630.551L363.408 601.264L354.15 590.572L374.962 592.895L369.106 602.329L453.497 621.161L382.101 597.327L412.453 588.265L318.434 583.236L348.768 599.24L276.221 614.25L259.831 591.714Z" fill="#4B4B4B"/>
<path d="M-9 313L391 227L395.5 392L-9 570.5V313Z" fill="#20222F"/>
<path d="M393 244L-9 332L-28.5 564L391 376L393 244Z" fill="#272E4F"/>
<path d="M-3.5 330.5L400.5 243M-11 555L400.5 372.5" stroke="#2C3255" stroke-width="4" stroke-linecap="round" stroke-linejoin="round"/>
<path d="M73.9092 383.208L132.417 365.723L151.819 373.564L95.811 392.115L73.9092 383.208Z" fill="#3B436B"/>
<path d="M28.9092 410.272L-29.5985 427.756L-49.0004 419.915L7.00739 401.364L28.9092 410.272Z" fill="#3B436B"/>
<path d="M-3.5 312.5L400.5 225M-11 572.5L400.5 390" stroke="#3E3E3E" stroke-width="4" stroke-linecap="round" stroke-linejoin="round"/>
<path d="M-3.5 172.5H400.5" stroke="#3F3F3F" stroke-width="4" stroke-linecap="round" stroke-linejoin="round"/>
<path d="M158.777 174.989C162.767 178.646 159.105 185.716 158.838 190.257C158.777 191.284 161.083 192.15 161.537 192.352C162.738 192.886 165.364 192.795 166.653 192.795H171.81C173.546 192.795 174.742 192.805 176.241 193.721C177.958 194.771 178.285 196.058 180.551 196.058C183.985 196.058 190.044 189.868 193 192.714C195.17 194.804 196.102 197.831 198.136 199.865C199.178 200.907 204.025 203.025 205.166 200.973C205.9 199.651 206.18 198.283 207.059 196.964C208.106 195.394 209.875 192.979 210.242 191.143C210.727 188.718 208.999 187.446 208.55 185.201C208.413 184.517 208.36 183.251 208.59 182.562C208.955 181.467 209.726 181.264 210.242 180.468C211.071 179.186 212.731 178.538 213.706 177.386C214.414 176.55 213.948 174.237 213.948 173.236V167.778C213.948 165.021 213.005 162.722 212.518 160.043C211.775 155.957 210.497 151.913 210.322 147.716C210.207 144.948 210.459 141.35 208.489 139.135C206.4 136.785 203.887 136.132 201.177 135.147C198.797 134.281 196.545 134.515 196.545 131.44C196.545 128.625 196.81 128.047 199.083 126.586L199.128 126.557C202.137 124.623 204.159 123.323 204.159 119.274C204.159 115.943 201.469 114.17 199.445 111.922C196.955 109.155 196.539 104.649 193.1 102.556C191.056 101.312 189.1 102.319 187.924 103.966C186.737 105.627 186.411 108.317 184.016 108.317C182.008 108.317 180.355 107.592 178.416 107.592C175.456 107.592 173.781 110.335 172.333 112.748C170.683 115.498 170.926 119.67 167.68 121.047C164.477 122.406 162.639 125.544 159.563 127.17C158.178 127.902 155.575 128.769 155.575 130.615C155.575 133.019 157.072 135.241 157.73 137.503C159.117 142.272 160.651 146.807 160.651 151.825C160.651 153.59 160.604 155.25 160.207 156.981C159.565 159.782 157.049 161.608 155.534 163.91C154.543 165.417 153.418 168.704 154.346 170.457C155.247 172.159 157.394 173.721 158.777 174.989Z" fill="#C6C6C6" stroke="#999999" stroke-width="4" stroke-linecap="round" stroke-linejoin="round"/>
<path d="M159.483 175.671C160.939 179.026 164.659 180.218 168.12 180.387C170.986 180.527 173.877 180.784 176.576 181.905C177.71 182.375 178.621 183.272 179.775 183.725C181.351 184.345 183.486 184.752 185.155 184.529C186.483 184.352 187.749 183.951 189.068 183.725C190.107 183.548 191.207 183.643 192.258 183.643" stroke="#999999" stroke-width="4" stroke-linecap="round" stroke-linejoin="round"/>
<path d="M213.813 165.632C212.357 167.365 211.049 169.424 209.302 170.865C207.678 172.204 205.705 173.329 203.659 173.867C202.87 174.074 202.072 174.047 201.264 174.047C199.862 174.047 198.395 174.165 197.015 173.875C196.127 173.688 195.478 173.193 194.661 172.874C193.734 172.513 192.725 172.571 191.749 172.571C189.725 172.571 187.689 172.463 185.705 172.948C183.997 173.365 182.503 174.032 180.71 174.047C179.849 174.055 178.902 174.148 178.052 173.982C176.957 173.767 175.8 173.146 174.821 172.62C173.867 172.108 173.097 171.349 172.18 170.799" stroke="#999999" stroke-width="4" stroke-linecap="round" stroke-linejoin="round"/>
<path d="M160.517 153.231C162.642 155.263 164.826 156.732 167.718 157.405C168.695 157.633 169.882 157.965 170.851 157.528C171.842 157.082 172.719 156.556 173.763 156.2C175.12 155.736 176.218 155.593 177.642 155.593C178.895 155.593 180.147 155.608 181.35 156.003C181.99 156.213 182.548 156.586 183.17 156.831C184.83 157.485 186.501 158.046 188.305 158.103C189.574 158.142 189.593 159.042 190.404 159.809C191.405 160.753 192.8 160.544 193.734 159.727" stroke="#999999" stroke-width="4" stroke-linecap="round" stroke-linejoin="round"/>
<path d="M210.122 146.587C207.711 146.243 205.182 145.422 202.732 145.422C200.974 145.422 199.731 147.512 198.754 148.711C198.143 149.462 197.169 149.677 196.244 149.687C194.091 149.711 192.013 149.233 190.142 148.129C188.647 147.248 187.297 146.452 185.606 145.997C184.253 145.632 182.952 145.337 181.612 144.897C179.345 144.154 176.898 144.225 174.542 144.225" stroke="#999999" stroke-width="4" stroke-linecap="round" stroke-linejoin="round"/>
<path d="M169.965 118.832C170.071 119.325 170.4 119.739 170.408 120.259C170.421 121.109 170 121.912 169.67 122.67C169.069 124.049 168.567 125.523 167.931 126.87C166.873 129.107 166.593 131.697 167.677 133.948C168.338 135.321 169.428 135.515 170.777 135.515C171.151 135.515 171.346 135.707 171.663 135.884C172.531 136.366 173.564 136.008 174.394 135.662" stroke="#999999" stroke-width="4" stroke-linecap="round" stroke-linejoin="round"/>
<path d="M196.392 131.233C195.905 130.625 195.851 129.797 195.268 129.158C194.016 127.784 192.036 127.025 190.199 126.96C189.08 126.92 187.633 126.738 186.533 127.017C185.529 127.272 185.043 127.698 184.319 128.395C183.861 128.836 183.505 128.871 182.891 128.871C181.743 128.871 181.506 128.371 181.046 127.337C180.665 126.48 180.743 124.982 181.333 124.294" stroke="#999999" stroke-width="4" stroke-linecap="round" stroke-linejoin="round"/>
<path d="M197.425 110.121C198.392 112.17 197.973 114.178 195.94 115.141C194.241 115.946 193.118 115.975 191.339 115.403C190.562 115.154 189.761 114.93 188.936 115.001C188.437 115.045 187.664 115.373 187.238 115.649C186.5 116.128 185.45 116.462 185.023 117.208" stroke="#999999" stroke-width="4" stroke-linecap="round" stroke-linejoin="round"/>
<path d="M173.077 156.348C173.679 156.567 174.626 156.671 174.998 157.27C175.437 157.979 175.29 159.004 175.29 159.798C175.29 161.2 174.844 162.257 173.638 163.041C172.827 163.568 172.627 164.509 172.662 165.446C172.681 165.971 173.535 166.296 173.907 166.445" stroke="#999999" stroke-width="4" stroke-linecap="round" stroke-linejoin="round"/>
<path d="M203.919 174.467C202.369 173.735 200.175 173.029 199.217 171.485C198.856 170.903 198.498 170.252 198.41 169.564C198.32 168.86 198.473 168.232 198.11 167.582C197.551 166.578 196.287 166.559 195.26 166.368C194.288 166.187 193.319 166.102 192.348 165.945C191.896 165.873 191.612 165.759 191.472 165.338" stroke="#999999" stroke-width="4" stroke-linecap="round" stroke-linejoin="round"/>
<path d="M180.268 145.007C180.268 146.236 180.434 147.582 179.907 148.726C179.171 150.327 177.112 151.273 175.42 151.362C173.754 151.449 172.102 151.208 170.449 151.231C169.825 151.239 167.959 151.804 167.959 152.614" stroke="#999999" stroke-width="4" stroke-linecap="round" stroke-linejoin="round"/>
<path d="M180.545 183.872C182.207 183.539 182.915 182.881 183.933 181.597C184.785 180.523 185.445 179.612 186.707 178.954C188.314 178.116 190.373 178.339 192.163 178.339" stroke="#999999" stroke-width="4" stroke-linecap="round" stroke-linejoin="round"/>
<path d="M183.726 129.24C183.726 130.846 183.698 131.959 182.343 133.082C181.533 133.753 181.099 134.951 181.099 135.986C181.099 137.527 181.556 137.831 182.758 138.676C183.91 139.485 186.144 139.775 187.461 139.336" stroke="#999999" stroke-width="4" stroke-linecap="round" stroke-linejoin="round"/>
<path d="M168.651 135.326C165.603 134.745 164.917 137.808 164.917 140.243C164.917 141.295 165.188 142.653 164.502 143.516C163.893 144.281 163.026 145.261 162.15 145.699" stroke="#999999" stroke-width="4" stroke-linecap="round" stroke-linejoin="round"/>
<path d="M275.755 128.177C279.529 128.678 283.346 129.629 286.751 131.373C287.029 130.814 286.986 130.16 287.04 129.5C287.147 128.218 288.475 127.034 289.066 125.949C289.892 124.433 290.743 122.841 291.349 121.22C291.692 120.3 292.754 117.928 291.091 118.008C289.614 118.078 288.266 119.349 287.04 120.042C284.256 121.614 284.108 120.874 282.121 118.879C280.982 117.735 280.363 116.445 279.678 114.973C278.691 112.854 278.691 109.154 276.752 107.596C274.029 105.409 271.1 107.626 268.505 108.581C266.81 109.205 266.115 110.135 264.181 110.163C261.407 110.203 259.019 110.072 256.401 109.001C251.691 107.074 249.084 100.841 243.331 102.189C241.689 102.574 239.96 102.682 238.364 103.254C237.057 103.723 236.4 105.289 235.342 106.095C231.885 108.729 227.619 107.598 223.575 107.548C220.688 107.513 217.883 106.676 215.006 106.676H208.11C204.604 106.676 201.177 108.324 198.368 110.357C196.653 111.598 193.247 113.918 193.015 116.248C192.841 118 194.211 119.17 195.442 120.268C197.979 122.528 201.221 125.071 204.67 125.497C207.221 125.813 209.943 125.562 212.515 125.562C217.516 125.562 222.481 125.882 227.368 127.015C229.725 127.561 231.815 128.824 234.152 129.339C237.094 129.988 240.046 130.605 242.994 131.244C247.484 132.216 252.088 131.985 256.658 131.954C261.24 131.923 264.872 130.852 268.907 128.774C271.117 127.636 273.282 127.849 275.755 128.177Z" fill="#75967D"/>
<path d="M-6.51399 82.5673C-11.0404 81.969 -15.6193 80.8331 -19.7037 78.7492C-20.0374 79.4166 -19.9851 80.1978 -20.0508 80.9861C-20.1784 82.518 -21.7715 83.932 -22.4805 85.2284C-23.4713 87.0401 -24.4923 88.9414 -25.2187 90.8783C-25.631 91.9778 -26.9049 94.8107 -24.9102 94.7157C-23.1384 94.6313 -21.5213 93.1132 -20.0508 92.286C-16.7108 90.4073 -16.5331 91.2914 -14.1501 93.6744C-12.783 95.0416 -12.0413 96.5823 -11.2191 98.3409C-10.0354 100.873 -10.0349 105.293 -7.70955 107.153C-4.44266 109.767 -0.929169 107.118 2.18272 105.977C4.21604 105.232 5.05044 104.12 7.3699 104.087C10.6975 104.04 13.5621 104.196 16.703 105.476C22.3527 107.777 25.4793 115.223 32.3802 113.613C34.3497 113.154 36.4245 113.024 38.3387 112.341C39.9061 111.781 40.6943 109.91 41.9639 108.947C46.1106 105.801 51.2279 107.152 56.0792 107.211C59.5416 107.253 62.906 108.252 66.3572 108.252H74.6296C78.8354 108.252 82.9465 106.285 86.3153 103.856C88.3729 102.373 92.4582 99.6014 92.7366 96.8176C92.9459 94.7246 91.302 93.3268 89.8248 92.016C86.7817 89.3159 82.8927 86.2774 78.7562 85.7683C75.6954 85.3916 72.4313 85.6912 69.3461 85.6912C63.3463 85.6912 57.3911 85.3086 51.5284 83.9557C48.701 83.3032 46.1943 81.7943 43.3909 81.1789C39.8616 80.4042 36.3206 79.666 32.7851 78.9035C27.3987 77.7417 21.8767 78.0177 16.3944 78.055C10.8981 78.0924 6.54143 79.3713 1.70064 81.8538C-0.950148 83.2132 -3.54686 82.9595 -6.51399 82.5673Z" fill="#75967D"/>
<path d="M401.969 -4.02079C413.823 -5.59009 425.815 -8.56932 436.511 -14.0349C437.385 -12.2845 437.248 -10.2355 437.42 -8.16807C437.754 -4.15013 441.926 -0.441256 443.783 2.95877C446.378 7.71068 449.052 12.6974 450.954 17.7777C452.034 20.6615 455.37 28.0916 450.146 27.8424C445.506 27.6211 441.271 23.6393 437.42 21.4698C428.673 16.5422 428.208 18.8611 421.967 25.1113C418.387 28.6972 416.444 32.7384 414.291 37.3508C411.191 43.9913 411.19 55.5851 405.1 60.4643C396.545 67.3191 387.343 60.3719 379.194 57.3791C373.869 55.4237 371.684 52.5095 365.609 52.4226C356.895 52.298 349.393 52.708 341.168 56.0641C326.372 62.1012 318.184 81.6308 300.111 77.4074C294.953 76.2021 289.52 75.8625 284.507 74.0694C280.402 72.6012 278.338 67.6941 275.013 65.1679C264.154 56.9171 250.752 60.4609 238.047 60.616C228.98 60.7268 220.169 63.3472 211.131 63.3472H189.467C178.452 63.3472 167.686 58.1857 158.864 51.8157C153.475 47.925 142.776 40.6569 142.047 33.3553C141.499 27.8658 145.804 24.1995 149.673 20.7617C157.642 13.6796 167.827 5.7102 178.66 4.37492C186.676 3.38684 195.224 4.17261 203.304 4.17261C219.016 4.17261 234.612 3.16922 249.965 -0.379281C257.37 -2.09059 263.934 -6.04828 271.276 -7.6623C280.519 -9.69424 289.792 -11.6303 299.051 -13.6303C313.157 -16.6775 327.618 -15.9535 341.976 -15.8557C356.37 -15.7576 367.779 -12.4032 380.456 -5.89212C387.398 -2.3267 394.199 -2.9921 401.969 -4.02079Z" fill="#75967D"/>
<g filter="url(#filter1_f_326_545)">
<circle cx="368" cy="70" r="116" fill="#5F2E6B"/>
</g>
<path d="M330 329.5C329.2 329.5 323.333 315.833 320.5 309L372.5 283.5L395.5 279L393.5 303L372 321L364.5 319.5L345 332.5C340.333 331.5 330.8 329.5 330 329.5Z" fill="#181818"/>
<path d="M200 265.5V180L221.5 171L227.5 175V177.5L236.5 186.5H307L324.5 193V273.5L225 292L200 265.5Z" fill="#00EEFD"/>
<path d="M236 286.5L200.5 180L227.5 178L236 188L213.5 189L246.5 283.5L236 286.5Z" fill="white"/>
<path d="M224.5 291L200.5 220V265.5L224.5 291Z" fill="white"/>
<path d="M227 173.5L222 171.5V139L392.5 105.5V277.5L340 300L323.5 271.5V191.5L306 186.5H236L227 179V173.5Z" fill="#FF5A00"/>
<path d="M227.5 178.5L228.5 162L306.5 171.5V186.5H236.5L227.5 178.5Z" fill="#FF8C21"/>
<path d="M236.5 186.5V172.5H274.5L290 170L227.5 160.5L227 178.5L236.5 186.5Z" fill="#D9771B"/>
<path d="M364 315.5C364 320.811 362.526 325.531 360.248 328.868C357.963 332.214 355.012 334 352 334C348.988 334 346.037 332.214 343.752 328.868C341.474 325.531 340 320.811 340 315.5C340 310.189 341.474 305.469 343.752 302.132C346.037 298.786 348.988 297 352 297C355.012 297 357.963 298.786 360.248 302.132C362.526 305.469 364 310.189 364 315.5Z" fill="#232323" stroke="#181818" stroke-width="4" stroke-linecap="round" stroke-linejoin="round"/>
<path d="M390 304.5C390 309.811 388.526 314.531 386.248 317.868C383.963 321.214 381.012 323 378 323C374.988 323 372.037 321.214 369.752 317.868C367.474 314.531 366 309.811 366 304.5C366 299.189 367.474 294.469 369.752 291.132C372.037 287.786 374.988 286 378 286C381.012 286 383.963 287.786 386.248 291.132C388.526 294.469 390 299.189 390 304.5Z" fill="#232323" stroke="#181818" stroke-width="4" stroke-linecap="round" stroke-linejoin="round"/>
<path d="M357 315.5C357 318.06 356.305 320.287 355.286 321.815C354.257 323.358 353.056 324 352 324C350.944 324 349.743 323.358 348.714 321.815C347.695 320.287 347 318.06 347 315.5C347 312.94 347.695 310.713 348.714 309.185C349.743 307.642 350.944 307 352 307C353.056 307 354.257 307.642 355.286 309.185C356.305 310.713 357 312.94 357 315.5Z" fill="#FF8C21" stroke="#B35600" stroke-width="4" stroke-linecap="round" stroke-linejoin="round"/>
<path d="M383 304.5C383 307.06 382.305 309.287 381.286 310.815C380.257 312.358 379.056 313 378 313C376.944 313 375.743 312.358 374.714 310.815C373.695 309.287 373 307.06 373 304.5C373 301.94 373.695 299.713 374.714 298.185C375.743 296.642 376.944 296 378 296C379.056 296 380.257 296.642 381.286 298.185C382.305 299.713 383 301.94 383 304.5Z" fill="#FF8C21" stroke="#B35600" stroke-width="4" stroke-linecap="round" stroke-linejoin="round"/>
<path d="M225.5 139L323 152L390.5 134.5V106L225.5 139Z" fill="#DE4E00"/>
<path d="M224.5 291L200 265.5V178.5M200 178.5L224.5 202.5H312.5M200 178.5L222 171.5M312.5 202.5V273M312.5 202.5L324 191M324 191V271.5M324 191L307 187M324 191V152M307 187H237M307 187V172M237 187C237 185 237 176.167 237 172M237 187L227.5 178.5V175M307 172H237M307 172L227.5 161M324 152L222 139M324 152L393 133.5M222 139L396.5 105.5M222 139V160.484V171.5M237 172L227.5 161M227.5 161V171.5V175M222 171.5L227.5 175M345.5 297.5L393 277.5" stroke="#00929B" stroke-width="4" stroke-linecap="round" stroke-linejoin="round"/>
<path d="M324 191V271.5M324 191L307 187M324 191V152M307 187H237M307 187V172M237 187C237 185 237 176.167 237 172M237 187L227.5 178.5V175M307 172H237M307 172L227.5 161M324 152L222 139M324 152L393 133.5M222 139L396.5 105.5M222 139V160.484V171.5L227.5 175M237 172L227.5 161M227.5 161V171.5V175M345.5 297.5L393 277.5" stroke="#4F1C00" stroke-width="4" stroke-linecap="round" stroke-linejoin="round"/>
<path d="M350.5 334L331 329M375 322.5L365 320" stroke="#181818" stroke-width="4" stroke-linecap="round" stroke-linejoin="round"/>
<path d="M41.1605 181.602C39.6293 180.691 37.5185 179.92 35.7365 180.547C34.6669 180.924 33.5775 181.344 32.5281 181.775C32.1333 181.937 31.8664 182.341 31.4922 182.465" stroke="#999999" stroke-width="4" stroke-linecap="round" stroke-linejoin="round"/>
<path d="M20.2114 193.6C17.0081 193.517 14.4271 192.598 12.3941 190.07C11.5269 188.727 12.3557 188.459 12.3943 187.727C12.5269 187.227 12.8323 186.972 12.9644 186.707C13.2899 186.056 13.7009 185.312 13.9478 184.544C14.4215 183.07 14.7826 181.432 15.4424 180.021C15.8558 179.137 16.6549 178.636 16.8584 177.641C16.9765 177.064 17.0271 176.501 16.996 175.911C16.9461 174.963 16.2489 174.652 15.7177 173.964C14.4861 172.367 14.3411 171.193 14.3411 169.224C14.3411 167.467 13.7327 165.252 15.7571 164.76C16.0501 164.689 17.864 164.534 17.881 164.229C17.9095 163.716 17.8383 163.218 17.9793 162.715C18.8416 159.635 23.6579 160.138 23.889 156.441C23.9622 155.27 24.0265 153.859 23.7022 152.724C23.343 151.467 22.6599 150.503 22.6599 149.076C22.6599 146.607 22.4895 143.881 23.6334 141.593C24.3072 140.245 25.0646 138.89 25.659 137.503C26.1284 136.407 26.1161 135.128 27.0061 134.238C27.6438 133.6 29.0789 133.372 29.9167 133.176C31.3176 132.849 32.9526 133.078 34.3809 133.078C36.2283 133.078 37.8902 133.385 39.6515 133.825C40.5931 134.06 41.2328 134.546 41.9524 135.162C42.6725 135.779 42.4834 137.28 42.4834 138.132C42.4834 140.246 42.1875 142.43 43.0144 144.405C43.9502 146.641 45.517 148.716 46.7313 150.817C47.986 152.987 48.9564 155.115 49.5633 157.542C50.1428 159.861 49.6803 162.577 49.4256 164.898C49.3099 165.952 49.3709 167.062 49.3863 168.123C49.3989 168.995 49.8573 169.498 50.2319 170.247C50.8039 171.391 51.5102 172.152 51.5102 173.61C51.5102 174.157 51.637 174.875 51.4119 175.39C51.1405 176.01 51.2783 176.876 50.8022 177.386C50.2207 178.009 49.4007 178.447 48.7766 179.028C47.913 179.832 47.3183 180.986 46.81 182.037C45.6738 184.385 44.1258 186.058 41.9426 187.494C40.3064 188.571 38.8077 189.035 36.9277 189.362C34.0108 189.87 31.0268 189.061 28.0681 189.372C26.0504 189.585 24.9408 191.914 23.5547 193.069C22.6068 193.859 21.3856 193.631 20.2114 193.6Z" fill="#C6C6C6" stroke="#999999" stroke-width="4" stroke-linecap="round" stroke-linejoin="round"/>
<path d="M15.6914 179.569C16.4028 180.13 16.7818 180.752 17.7195 181.001C18.4984 181.208 19.3233 180.977 20.0012 180.596C20.465 180.335 21.4549 180.422 21.9659 180.507C22.8277 180.651 23.4396 181.147 23.7278 181.971C23.9258 182.537 23.643 183.16 24.1398 183.625C24.603 184.06 24.8728 184.643 25.325 185.096C25.5169 185.288 25.8122 185.427 26.0729 185.501C26.3544 185.582 26.6155 186.015 26.8714 186.186" stroke="#999999" stroke-width="4" stroke-linecap="round" stroke-linejoin="round"/>
<path d="M49.2308 169.074C47.6562 169.074 45.7806 168.803 44.2365 169.213C42.459 169.685 41.2433 171.718 40.8648 173.383C40.575 174.658 40.5462 176.281 39.9648 177.465C39.5123 178.387 38.3195 178.954 37.3726 179.157C36.3122 179.384 35.3422 178.999 34.2987 178.999C33.2936 178.999 32.3201 178.944 31.3453 179.227C30.5425 179.46 29.1523 180.335 29.1523 181.28" stroke="#999999" stroke-width="4" stroke-linecap="round" stroke-linejoin="round"/>
<path d="M19.6836 161.658C19.7053 162.851 19.7583 163.808 20.5582 164.738C21.2527 165.546 22.1958 166.24 23.2391 166.5C25.0064 166.942 26.7166 167.105 28.3221 168.034C28.7392 168.276 28.8765 168.523 29.0383 168.959C29.2422 169.51 29.6279 169.968 29.9256 170.468C30.4782 171.395 30.8021 171.583 31.8904 171.583" stroke="#999999" stroke-width="4" stroke-linecap="round" stroke-linejoin="round"/>
<path d="M46.8352 151.733C44.4895 151.755 42.8797 152.454 41.3846 154.357C40.2654 155.781 39.8911 157.626 38.3931 158.749C37.37 159.516 36.0391 159.491 34.8059 159.491C33.9543 159.491 33.2842 159.632 33.0312 160.517" stroke="#999999" stroke-width="4" stroke-linecap="round" stroke-linejoin="round"/>
<path d="M23.1064 145.573C24.0589 147.549 25.0729 149.123 27.0866 150.13C28.3207 150.747 29.6389 150.993 30.9084 151.511C31.8185 151.883 32.6951 152.681 33.1457 153.558C33.4159 154.085 33.6085 154.129 34.1724 154.129" stroke="#999999" stroke-width="4" stroke-linecap="round" stroke-linejoin="round"/>
<path d="M42.0441 142.264C39.8133 142.264 37.3892 142.477 35.1739 142.125C33.8554 141.915 32.5198 141.798 31.2063 142.1C30.5611 142.248 29.7657 142.272 29.4951 142.949" stroke="#999999" stroke-width="4" stroke-linecap="round" stroke-linejoin="round"/>
<path d="M41.8742 170.549C41.3652 169.022 39.7507 168.581 38.2773 168.411C37.2774 168.295 36.1915 168.574 35.208 168.353C34.4875 168.191 33.7189 167.492 33.4192 166.833C33.18 166.306 32.9653 165.445 32.4648 165.111" stroke="#999999" stroke-width="4" stroke-linecap="round" stroke-linejoin="round"/>
<path d="M20.8115 179.872C21.5723 179.872 22.4547 179.908 22.8833 179.167C23.5266 178.056 23.9172 176.853 24.7824 175.868C25.4781 175.076 26.6191 174.636 27.6311 174.434" stroke="#999999" stroke-width="4" stroke-linecap="round" stroke-linejoin="round"/>
<path d="M37.3857 142.926C36.1991 143.4 35.4003 144.557 35.4003 145.818C35.4003 146.693 33.39 146.79 32.8105 146.983" stroke="#999999" stroke-width="4" stroke-linecap="round" stroke-linejoin="round"/>
<g filter="url(#filter2_f_326_545)">
<ellipse cx="98" cy="184" rx="112" ry="22" fill="#5F2E6B"/>
</g>
<path d="M-3.04933 168.978C28.2303 150.802 47.0228 159.242 52.509 165.735L48.4443 203.941C37.9213 170.199 9.73062 166.573 -3.04933 168.978Z" fill="url(#paint1_linear_326_545)"/>
<path d="M46.8324 238.933C55.6436 274.021 74.8038 281.59 83.2824 280.989L107.81 251.414C76.2991 267.425 54.0287 249.765 46.8324 238.933Z" fill="url(#paint2_linear_326_545)"/>
<path d="M74 153L68.5 146.5L72.5 144L86 145L95.5 144L97.5 151L104 159L101.5 168.5L98.5 166L88.5 156.5L74 153Z" fill="#4A4A4A"/>
<path d="M46.9995 195.5L45.9995 200L43.9995 204.5L39.4995 199.5L26.4995 189.5L36.9995 186L41.8053 177.685L51.2091 174.844L50.6484 178.709L47.7853 192.202L46.9995 195.5Z" fill="#4A4A4A"/>
<path d="M44.5802 205.991C43.9607 203.926 43.3871 202.25 41.9066 200.564C41.1065 199.652 39.6828 199.354 38.53 199.123C37.2156 198.86 35.8683 197.842 34.9114 196.956C33.1465 195.322 30.7581 194.063 28.6422 192.935C26.6969 191.897 26.2776 189.493 28.4924 188.406C29.4477 187.937 30.6804 187.945 31.7192 187.945C32.6908 187.945 34.245 188.258 35.0843 187.645C36.8805 186.332 37.1273 183.976 38.5646 182.436C39.2359 181.717 39.4563 180.663 40.2125 179.97C40.8322 179.402 41.655 178.64 42.1947 177.976C43.0734 176.895 44.5435 175.672 45.8709 175.245C46.3733 175.083 46.7559 174.669 47.2769 174.669C47.7648 174.669 48.314 174.861 48.314 174.254" stroke="#363636" stroke-width="4" stroke-linecap="round" stroke-linejoin="round"/>
<path d="M73.6212 153.925C73.6212 151.282 72.0088 149.943 69.8873 148.647C68.4768 147.785 67.7586 146.908 68.0319 145.132C68.2374 143.796 71.2946 143.244 72.2843 143.15C73.7047 143.015 76.0303 142.787 77.355 143.45C78.9251 144.235 79.9667 145.005 81.7918 145.005C83.0921 145.005 84.0912 144.296 85.3413 144.187C86.4699 144.089 87.6431 144.176 88.7755 144.176C90.5808 144.176 92.0363 143.2 93.8461 143.357C94.6584 143.428 95.6911 144.481 96.3469 144.959C96.8116 145.298 96.8539 145.552 96.8539 146.089C96.8539 147.069 96.402 149.367 97.0614 150.191C97.5521 150.805 97.7283 151.27 98.4212 151.805C98.9392 152.204 99.4403 152.604 99.9194 153.049C101.226 154.263 102.918 154.95 103.331 156.875C103.682 158.514 103.699 160.082 103.699 161.762C103.699 162.976 103.284 164.138 103.284 165.334C103.284 166.457 102.859 167.469 103.238 168.607C103.238 168.607 103.199 168.845 103.782 169.845" stroke="#363636" stroke-width="4" stroke-linecap="round" stroke-linejoin="round"/>
<path d="M48 178.5V173L57 160L66.5 154.5L78.5 154L90.5 158.5L101.5 168.5L113 175.5L116 188.5L119 191.5L121 198.5L117.5 202L111.5 210L113.5 220L110 225L98.5 230.5L81 233.5L71.5 230.5L57.5 223.5L46 213V202.5V193L43.5 188.5V185L48 178.5Z" fill="#232323"/>
<path d="M45.1323 208.417C46.2246 217.239 55.5025 221.194 62.265 224.833C63.2811 225.341 67.7907 228.16 68.471 229.011C69.4086 230.183 71.3501 230.909 72.6614 231.464C74.2484 232.135 75.8779 232.98 77.5545 233.387C79.1253 233.767 80.7653 233.665 82.3681 233.665C86.1846 233.665 89.824 232.354 93.5469 231.623C96.8275 230.978 100.513 229.854 103.545 228.427C105.89 227.324 107.92 226.475 109.765 224.595C111.001 223.335 112.363 222.046 112.39 220.192C112.462 215.212 110.895 209.534 114.538 205.393C116.073 203.649 118.144 202.895 119.498 200.911C121.028 198.669 120.306 196.847 119.896 194.36C119.688 193.101 120.207 192.099 118.968 191.536C117.887 191.045 116.722 190.551 116.09 189.481C113.625 185.308 115.139 179.825 112.523 175.782C110.17 172.147 105.638 171.51 102.365 169.033C100.516 167.633 98.9544 166.491 97.4588 164.696C95.4413 162.275 92.8662 159.891 90.1919 158.252C83.863 154.373 76.5715 153.088 69.2401 154.234C66.634 154.641 63.9346 155.256 61.6815 156.7C58.6858 158.621 56.0461 161.757 53.6588 164.365C51.6485 166.561 49.0837 169.692 48.6065 172.746C48.2634 174.942 48.648 177.294 47.8905 179.429C46.9407 182.106 41.89 184.935 43.6603 188.181C43.9965 188.797 44.6365 189.22 44.9599 189.892C45.4858 190.984 46.0324 192.084 46.4583 193.22C47.2684 195.38 46.8506 197.24 46.2196 199.4C45.349 202.38 44.7443 205.283 45.1323 208.417Z" stroke="#1D1D1D" stroke-width="4" stroke-linecap="round" stroke-linejoin="round"/>
<path d="M78.6032 192.044C71.8406 187.732 67.1355 180.918 64.7907 176.401C64.3657 175.582 63.1188 175.659 62.8797 176.55C58.7735 191.85 69.915 194.603 78.2482 193.9C79.2007 193.82 79.4092 192.557 78.6032 192.044Z" fill="#FF4141" stroke="#FF4141" stroke-width="3" stroke-linecap="round" stroke-linejoin="round"/>
<path d="M90.5349 193.759C97.0148 193.162 102.966 190.174 106.528 187.798C107.295 187.286 108.358 187.945 108.136 188.84C105.021 201.361 95.9416 199.29 89.9875 195.568C89.1769 195.061 89.5831 193.847 90.5349 193.759Z" fill="#FF4141" stroke="#FF4141" stroke-width="3" stroke-linecap="round" stroke-linejoin="round"/>
<path d="M93.7146 221.438C95.0755 219.52 96.5751 217.96 97.9023 216.789C98.676 216.106 98.1727 214.5 97.1409 214.5H89.5074C89.1885 214.5 88.8887 214.348 88.7004 214.091L82.485 205.596C82.2257 205.242 81.7656 205.098 81.3507 205.242L71.1163 208.787C70.7417 208.916 70.3259 208.813 70.0562 208.522L64.5582 202.601C64.2337 202.252 63.7044 202.179 63.3085 202.445C59.4638 205.029 57.775 208.096 57.214 209.981C57.0517 210.527 57.4808 211.027 58.0488 211.065C76.9039 212.319 87.9745 218.147 92.0705 221.63C92.5659 222.051 93.3383 221.968 93.7146 221.438Z" fill="white"/>
<path d="M77 280.5L86.5 270L89 280L86.5 286L79 283L77 280.5Z" fill="#4A4A4A"/>
<path d="M88.999 278L86.999 268.5C86.1657 266.333 84.299 261.8 83.499 261C82.699 260.2 88.1657 257.667 90.999 256.5L92.999 251.5L95.999 250H106.999L118.499 253L123.499 264.5L132.999 267L139.999 276L137.499 283L128.499 294L127.999 300.5L123.999 303L121.499 302L112.499 295H97.499L94.499 292L86.999 291V287L88.999 278Z" fill="#232323"/>
<path d="M87.1001 288.002C86.3099 286.981 85.5412 286.213 84.3804 285.612C83.2237 285.012 81.9805 284.528 80.7121 284.228C79.0955 283.845 77.6172 283.686 76.6179 282.219C76.2927 281.742 75.8875 281.237 76.1001 280.632C76.4167 279.731 77.5753 279.06 78.2343 278.401C79.2128 277.422 79.9571 276.309 79.9571 274.907C79.9571 274.527 79.9422 274.418 80.3249 274.239C80.8014 274.016 81.3697 273.462 81.8784 273.378C82.9546 273.198 83.6379 273.114 84.2255 272.081C84.4911 271.613 84.7463 271.146 84.9901 270.668C85.2076 270.241 85.5965 269.95 85.8274 269.54C86.217 268.847 86.2272 267.971 86.5775 267.27" stroke="#363636" stroke-width="4" stroke-linecap="round" stroke-linejoin="round"/>
<path d="M86.7617 268.125C87.4018 269.838 87.4927 271.533 88.4688 273.119C89.4449 274.705 89.1567 275.923 89.1567 277.934C89.1567 279.208 89.0749 280.173 88.5835 281.374C87.834 283.206 86.8636 284.45 86.8636 286.533C86.8636 288.321 86.5968 290.067 88.4688 290.954C89.3232 291.359 90.5039 291.186 91.4498 291.642C93.4629 292.611 95.0983 294.012 97.2335 294.801C100.191 295.894 102.551 295.306 105.527 295.145C107.364 295.046 109.23 295.133 111.069 295.133C113.829 295.133 115.792 296.761 117.413 298.852C118.577 300.354 121.408 304.088 123.693 302.904C124.98 302.236 126.312 301.582 127.642 301.005C127.963 300.866 128.744 300.588 128.815 300.165C129.081 298.568 128.517 296.842 128.929 295.26C129.649 292.494 131.844 289.283 133.999 287.387C134.805 286.678 135.166 285.643 135.936 284.928C136.569 284.34 137.152 283.542 137.516 282.763C137.911 281.915 138.097 281.313 138.7 280.559C139.546 279.501 140.063 279.028 140.063 277.603C140.063 277.03 140.398 275.161 139.962 274.724C139.489 274.252 138.582 274.269 138.051 273.756C136.998 272.739 136.119 271.15 135.681 269.781C135.323 268.663 133.91 267.549 133.133 266.698C132.214 265.692 131.146 265.231 129.846 264.915C128.98 264.704 127.862 265.108 126.942 265.093C124.983 265.061 122.003 264.408 121.477 262.214C120.937 259.964 120.364 257.721 119.77 255.475C118.876 252.098 113.471 250.188 110.304 250.188C108.965 250.188 107.685 250.054 106.355 249.971C104.644 249.864 103.018 249.041 101.31 249.041C99.3095 249.041 97.4603 249.385 95.5264 249.78C94.4591 249.999 93.4216 250.961 93.106 252.022C92.5767 253.802 92.2053 255.22 90.5071 256.175C88.3987 257.361 86.2721 258.744 84.4814 260.379C83.2918 261.466 84.1546 262.802 84.7999 263.997C85.4924 265.281 86.2536 266.765 86.7617 268.125Z" stroke="#1D1D1D" stroke-width="4" stroke-linecap="round" stroke-linejoin="round"/>
<path d="M107.201 273.813C102.865 273.477 98.8293 271.786 96.1572 270.278C95.354 269.824 94.322 270.542 94.6184 271.415C97.4204 279.672 103.544 278.324 107.803 275.601C108.608 275.086 108.154 273.887 107.201 273.813Z" fill="#FF4141" stroke="#FF4141" stroke-width="3" stroke-linecap="round" stroke-linejoin="round"/>
<path d="M115.683 270.881C117.681 269.213 119.19 267.136 120.183 265.407C120.642 264.607 121.905 264.665 122.075 265.572C123.061 270.831 119.56 272.479 116.188 272.689C115.234 272.748 114.95 271.494 115.683 270.881Z" fill="#FF4141" stroke="#FF4141" stroke-width="3" stroke-linecap="round" stroke-linejoin="round"/>
<path d="M125.021 283.806C125.096 283.209 125.203 282.641 125.327 282.113C125.563 281.109 124.225 279.923 123.331 280.439L120.863 281.864C120.587 282.024 120.251 282.042 119.959 281.913L114.623 279.559C114.221 279.382 113.751 279.487 113.463 279.819L109.562 284.323C109.303 284.623 108.891 284.741 108.512 284.624L104.43 283.367C103.974 283.226 103.477 283.426 103.279 283.86C102.32 285.963 102.251 287.762 102.431 288.913C102.519 289.475 103.131 289.702 103.644 289.454C113.146 284.856 120.275 284.372 123.659 284.828C124.304 284.914 124.939 284.451 125.021 283.806Z" fill="white"/>
<path fill-rule="evenodd" clip-rule="evenodd" d="M86.3465 73.7052L89.7406 75.3615L32 38L42.5669 52.3408L53.357 57.6063C52.8 62.1694 54.5383 68.9011 63.8358 74.4143C75.8024 81.5103 83.775 77.0185 86.3465 73.7052Z" fill="white"/>
<path fill-rule="evenodd" clip-rule="evenodd" d="M107.394 72.7052L104 74.3615L161.74 37L151.173 51.3408L140.383 56.6063C140.94 61.1694 139.202 67.9011 129.904 73.4143C117.938 80.5103 109.965 76.0185 107.394 72.7052Z" fill="white"/>
<path d="M109.454 828.254C107.859 834.298 107 839.446 107 845.791V848H393.034V623.32C391.376 623.32 385.842 622.395 384.535 623.44C383.674 624.129 381.994 624.995 380.914 625.475C379.762 625.987 379.588 628.13 378.46 628.976C374.992 631.577 372.539 632.805 368.135 631.281C366.376 630.672 363.413 626.597 362.39 625.176C360.759 622.911 359.523 620.623 357.751 618.442C349.482 608.265 337.326 604.881 327.436 596.925C322.429 592.898 318.522 591 311.934 591C304.527 591 295.274 594.566 291.345 601.115C289.574 604.067 287.547 607.305 286.676 610.661C285.816 613.98 286.77 617.213 286.916 620.507C287.045 623.405 290.113 625.557 292.093 627.39C294.478 629.598 297.229 631.421 299.754 633.465C300.934 634.42 303.286 635.261 304.123 636.518C306.167 639.583 295.385 635.525 294.457 635.171C290.84 633.79 289.822 632.664 286.108 633.794C283.641 634.545 280.943 634.643 278.567 635.74C274.501 637.616 272.71 641.48 269.08 643.79C262.445 648.012 253.25 646.483 245.857 646.483C237.171 646.483 228.111 648.726 221.019 653.995C217.136 656.879 214.161 660.81 211.502 664.798C209.354 668.02 209.886 671.47 209.886 675.212C209.886 682.306 209.267 692.603 217.008 695.921C221.103 697.676 225.836 695.678 230.026 696.609C231.132 696.855 229.339 699.212 229.009 699.542C227.75 700.801 227.802 702.239 226.046 703.163C223.892 704.297 222.062 704.596 219.702 705.078C213.452 706.357 206.602 706.275 200.19 706.275C193.839 706.275 190.657 708.218 186.993 713.039C183.28 717.924 181.428 723.396 175.291 725.907C167.086 729.264 149.361 728.864 149.016 741.289C148.883 746.084 150.64 750.581 152.787 754.756L152.8 754.782C154.897 758.859 157.282 763.496 161.376 765.799C169.422 770.324 176.897 770.377 186.065 770.377C189.52 770.377 189.154 769.872 186.334 770.916C181.271 772.791 175.062 772.446 169.755 773.13C162.967 774.006 155.077 778.832 151.171 784.413C148.814 787.78 148.058 791.735 146.862 795.575C145.707 799.282 143.469 802.901 140.936 805.81C137.815 809.394 134.417 812.348 129.893 813.77C125.943 815.012 121.551 816.743 118.013 818.887C113.893 821.384 110.732 823.411 109.454 828.254Z" fill="#A4A4A4" stroke="#8F8F8F" stroke-width="4" stroke-linecap="round" stroke-linejoin="round"/>
<path d="M377.761 648.553C382.801 645.046 385.382 643.251 391.956 643.251V849.023H157.096C153.86 844.17 159.683 839.311 163.68 837.831C171.397 834.972 179.133 836.143 185.346 829.93C188.459 826.818 189.307 821.875 193.726 819.666C196.561 818.248 199.095 816.703 202.344 816.703H209.108C212.853 816.703 217.231 817.451 220.689 815.895C225.011 813.95 227.442 811.551 229.936 807.426C231.824 804.305 231.627 800.675 231.433 797.084L231.433 797.071C231.26 793.877 230.355 790.912 230.355 787.615V778.457C230.355 774.953 231.091 770.732 229.398 767.684C227.554 764.365 224.536 761.607 224.998 757.449C225.457 753.322 231.373 750.683 234.694 749.609C242.828 746.977 251.565 743.683 258.306 738.416C260.06 737.046 263.601 735.842 264.531 733.718C265.219 732.145 265.059 729.211 264.77 727.553C264.173 724.121 262.531 721.862 262.675 718.246C262.763 716.053 269.103 715.972 270.636 715.972C275.471 715.972 278.474 714.559 282.187 711.423C284.524 709.45 287.395 706.004 288.831 703.283C289.467 702.077 288.594 701.467 288.532 700.35C288.399 697.961 286.093 697.118 283.983 697.118C277.867 697.118 271.833 689.577 271.833 683.891C271.833 671.742 287.483 669.107 296.731 669.107H308.462C313.282 669.107 315.563 668.481 319.236 665.456C320.64 664.3 321.389 662.384 322.468 660.907C323.796 659.09 325.586 657.19 327.316 655.76C330.417 653.196 333.083 651.87 337.012 651.87C340.991 651.87 343.835 653.552 347.546 654.294C353.059 655.396 359.419 654.563 365.023 654.563C367.615 654.563 370.739 654.874 372.804 652.947C374.468 651.393 375.798 649.918 377.682 648.608L377.761 648.553Z" fill="#868686" stroke="#6B6B6B" stroke-width="4" stroke-linecap="round" stroke-linejoin="round"/>
<path d="M372.804 694.425C378.444 690.632 383.669 687.166 389.802 684.19H395V848.185L261.06 850.639C259.32 850.349 253.996 849.964 252.979 848.185C252.531 847.4 251.099 846.043 250.256 845.552C247.616 844.011 247.593 842.891 247.593 839.836C247.593 835.368 247.598 829.622 251.902 827.357C255.864 825.272 259.327 822.675 261.06 818.439C262.575 814.733 264.345 811.26 265.937 807.545C267.461 803.99 268.308 801.62 272.372 801.62C281.001 801.62 288.233 801.26 292.422 792.463C294.154 788.826 293.875 783.615 294.697 779.624C295.269 776.845 295.534 774.257 295.534 771.425C295.534 766.825 295.148 762.026 295.564 757.449C295.877 754.008 296.766 750.511 297.27 747.095C297.739 743.918 300.205 741.655 301.998 739.134C304.565 735.527 309.394 731.762 313.969 734.286C316.698 735.792 321.9 734.825 324.862 734.825C328.996 734.825 333.013 735.142 337.012 734.017C342.902 732.36 345.981 730.104 349.641 725.398C350.603 724.162 349.708 721.528 350.06 720.041C351.168 715.364 352.98 711.008 356.225 707.353C360.884 702.104 367.031 698.306 372.804 694.425Z" fill="#515151" stroke="#444444" stroke-width="4" stroke-linecap="round" stroke-linejoin="round"/>
<path d="M375.257 774.447C379.968 776.733 387.163 774.764 391.956 774.148V851.178H315.465C316.307 848.652 318.011 846.821 318.158 844.175C318.346 840.799 318.028 838.337 316.812 835.227C315.667 832.302 314.905 824.574 316.812 821.82C318.826 818.911 320.849 815.54 322.468 812.394C323.822 809.76 325.446 805.627 328.154 804.194C332.68 801.798 339.022 800.601 341.321 795.276C343.39 790.484 343.657 785.388 346.169 780.642C350.327 772.789 357.67 768.728 366.339 771.155C369.579 772.062 372.216 772.971 375.257 774.447Z" fill="#292929" stroke="#1F1F1F" stroke-width="4" stroke-linecap="round" stroke-linejoin="round"/>
<path d="M230.912 696.814C233.114 696.221 237.162 695.193 238.379 693.08C239.103 691.825 239.284 689.461 239.665 688.04C240.613 684.509 241.418 680.479 244.54 678.167C248.08 675.545 253.104 675.328 255.927 671.799" stroke="#8F8F8F" stroke-width="4" stroke-linecap="round" stroke-linejoin="round"/>
<path d="M262.436 717.864C258.539 716.681 254.759 715.686 250.658 715.874C247.359 716.026 244.237 716.924 241.168 718.088C238.289 719.18 235.06 720.18 232.91 722.504C231.174 724.379 230.238 726.416 229.278 728.71C228.159 731.383 226.236 733.043 223.544 733.983C221.538 734.684 219.239 735.427 217.089 735.078C214.92 734.725 213.202 733.759 210.945 733.759" stroke="#6B6B6B" stroke-width="4" stroke-linecap="round" stroke-linejoin="round"/>
<path d="M188.558 770.25C190.449 770.25 192.339 770.242 194.23 770.25C196.312 770.26 197.861 770.088 199.08 771.917C200.116 773.47 201.283 775.255 201.319 777.19C201.352 778.937 201.429 780.838 200.971 782.538C200.545 784.119 201.442 786.339 200.448 787.712C199.34 789.244 197.486 790.35 195.872 791.245C194.441 792.037 193.101 792.945 191.456 793.185C188.733 793.582 185.494 792.479 182.912 793.409C180.276 794.357 176.132 795.81 174.554 798.296C172.413 801.67 171.494 804.536 171.32 808.532" stroke="#8F8F8F" stroke-width="4" stroke-linecap="round" stroke-linejoin="round"/>
<path d="M268.021 803.639C269.798 799.676 270.924 793.94 267.964 790.301C264.924 786.564 259.734 784.061 259.162 778.852C258.923 776.672 258.823 774.172 259.706 772.112C260.406 770.478 261.708 769.413 262.969 768.233C264.887 766.439 265.073 763.425 266.218 761.135" stroke="#444444" stroke-width="4" stroke-linecap="round" stroke-linejoin="round"/>
<path d="M350.454 716.312C350.781 712.464 351.52 706.918 347.477 704.748C341.81 701.707 335.285 705.627 329.846 707.181C328.672 707.516 324.317 708.692 323.32 707.496C322.333 706.312 322.876 703.166 323.076 701.872C323.447 699.476 324.513 697.493 325.81 695.503C326.307 694.739 326.203 693.862 326.754 693.127" stroke="#444444" stroke-width="4" stroke-linecap="round" stroke-linejoin="round"/>
<path d="M330.104 653.456C332.164 651.129 333.961 648.885 335.055 645.957C336.018 643.385 336.307 640.71 336.801 638.029C337.201 635.86 337.84 633.978 335.828 632.476C333.207 630.519 329.495 629.947 327.127 627.71C325.658 626.323 326.473 621.606 326.497 619.825C326.511 618.83 326.755 617.886 326.755 616.877" stroke="#6B6B6B" stroke-width="4" stroke-linecap="round" stroke-linejoin="round"/>
<path d="M328.043 803.897C325.941 803.873 323.941 803.931 322.275 802.48C320.61 801.029 320.074 799.086 319.57 796.999C319.216 795.532 318.677 793.931 319.985 792.906C321.422 791.78 323.952 790.392 324.508 788.555C324.998 786.934 324.641 785.171 323.806 783.747C322.275 781.135 320.538 778.627 318.826 776.133C317.698 774.49 316.27 772.671 316.508 770.552C316.763 768.277 318.734 766.693 320.314 765.256" stroke="#1F1F1F" stroke-width="4" stroke-linecap="round" stroke-linejoin="round"/>
<path d="M349.682 726.101C349.682 728.764 349.53 731.399 349.438 734.058C349.335 737.042 349.499 741.545 351.499 743.961C352.82 745.558 356.27 746.261 358.039 745.149C359.833 744.022 361.038 741.893 363.063 741.185C364.608 740.644 366.869 741.074 368.372 741.557C369.8 742.016 370.864 743.036 372.351 743.303C375.455 743.86 376.691 737.341 377.188 735.374C378.203 731.358 379.164 727.322 380.852 723.525" stroke="#444444" stroke-width="4" stroke-linecap="round" stroke-linejoin="round"/>
<path d="M315.421 832.491C312.653 829.369 307.531 826.885 303.442 826.351C300.592 825.98 297.909 828.148 295.9 829.915C295.051 830.661 294.275 831.78 293.21 832.233C292.04 832.731 290.388 832.54 289.174 832.448C284.531 832.095 280.784 830.035 277.811 826.566" stroke="#1F1F1F" stroke-width="4" stroke-linecap="round" stroke-linejoin="round"/>
<mask id="mask0_326_545" style="mask-type:alpha" maskUnits="userSpaceOnUse" x="-38" y="290" width="255" height="481">
<path d="M111.5 412.5C181.984 425.524 167.182 497.624 211.194 498.492C211.652 498.501 212.078 498.812 212.189 499.257L216.762 517.549C216.894 518.077 216.565 518.617 216.043 518.773C169.132 532.796 178.688 628.46 132.5 622.5C99.2163 618.205 60.4452 651 61.5 705.5C62.6922 767.095 -9.05394 778.848 -36.9557 764.781C-37.2975 764.608 -37.4921 764.257 -37.4795 763.875L-22.0316 291.467C-22.014 290.928 -21.544 290.5 -21.0044 290.504C69.9681 291.321 65.6666 404.031 111.5 412.5Z" fill="url(#paint3_linear_326_545)"/>
</mask>
<g mask="url(#mask0_326_545)">
<path d="M111.5 412.5C181.984 425.524 167.182 497.624 211.194 498.492C211.652 498.501 212.078 498.812 212.189 499.257L216.762 517.549C216.894 518.077 216.565 518.617 216.043 518.773C169.132 532.796 178.688 628.46 132.5 622.5C99.2163 618.205 60.4452 651 61.5 705.5C62.6922 767.095 -9.05394 778.848 -36.9557 764.781C-37.2975 764.608 -37.4921 764.257 -37.4795 763.875L-22.0316 291.467C-22.014 290.928 -21.544 290.5 -21.0044 290.504C69.9681 291.321 65.6666 404.031 111.5 412.5Z" fill="url(#paint4_angular_326_545)"/>
</g>
<path d="M335 401.5L320 399L315.5 403.5L334 420.5L349 445.5L347 493.5L358.5 491.5L368.5 483.5L373 468.5V455.5L370.5 441L363 422.5L347.5 406.5L335 401.5Z" fill="#858585"/>
<path d="M362.372 486.862C372.488 447.804 351.264 426.973 335 416L342.736 493L358.802 491.884L362.372 486.862Z" fill="#696969"/>
<path d="M319.5 399.5C329 399.5 346 401.3 358 416.5C373 435.5 375.287 455.633 373 470.5C371 483.5 361 496 346 493" stroke="#4F4F4F" stroke-width="4" stroke-linecap="round" stroke-linejoin="round"/>
<path d="M361.725 407.419C363.814 412.527 361.771 417.664 357.916 419.24C354.061 420.816 349.004 418.582 346.915 413.474C344.827 408.366 346.87 403.229 350.725 401.653C354.58 400.077 359.637 402.311 361.725 407.419Z" fill="#00EEFD" stroke="#00C0CC" stroke-width="4" stroke-linecap="round" stroke-linejoin="round"/>
<path d="M375.195 431.624C376.882 435.75 375.206 439.808 372.204 441.035C369.203 442.262 365.164 440.541 363.477 436.415C361.79 432.289 363.466 428.231 366.467 427.004C369.469 425.777 373.508 427.498 375.195 431.624Z" fill="#00EEFD" stroke="#00C0CC" stroke-width="4" stroke-linecap="round" stroke-linejoin="round"/>
<path d="M206 301.5L191.5 316.5L188.5 326L184 344.5L185 371L194 399.5L207 413.5L228.5 424.5L216.5 446L217 464L224 480L235.5 496L263 518.5L254 522.5L252.5 530L253 537.5L259.5 541L271 536.5L282 529H300L313 540L323 542L328.5 539L331 526V514L339.5 500.5L349 470.5L350.5 452.5L347.5 436L335.5 417.5L317 403L330.5 380L332.5 360L331.5 330.5L325 315.5L321.5 307.5L343.5 299L358 288.5L360.5 284L358 278L349 273L328.5 271L289.5 276L247 284L221.5 292L206 301.5Z" fill="#FF5A00"/>
<path d="M185.5 329.5L191.5 319.5L193 327.5L204 338.5L227.5 343.5L247.5 341.5L263 335.5L283.5 334L297 341.5L302 359L297 374L281.5 386.5L254.5 393L226.5 395L205.5 389L190.5 376L183 360.5L185.5 329.5Z" fill="#00EEFD"/>
<path d="M285 332.955L262 336L298.5 372.5L301.5 361.5L301 353L300.033 346.859L293.5 339.5L285 332.955Z" fill="white"/>
<path d="M249 341L224.5 343L268.5 391L287.506 381.023L249 341Z" fill="white"/>
<path d="M217.5 444.5C215 441.5 207.3 435.6 196.5 436" stroke="#036500" stroke-width="4" stroke-linecap="round" stroke-linejoin="round"/>
<circle cx="182.5" cy="436.5" r="12.5" fill="#07FD00" stroke="#048C00" stroke-width="4" stroke-linecap="round" stroke-linejoin="round"/>
<path d="M189.5 374.5C184.7 350.1 196.5 340.333 203 338.5L193 325.5C192.167 323.833 190.4 320.5 190 320.5C189.6 320.5 185.167 331.5 183 337V365L189.5 374.5Z" fill="#00CCDA"/>
<path d="M184 361C186.333 373.333 200.5 397 239.5 394.5C270 392.545 284 387 295 376C306 365 301 346 295 339.5C289 333 276 330.5 262.5 336.5C249 342.5 218.107 348.362 201.5 336.5C191 329 191.5 322 194 314.5" stroke="#00858D" stroke-width="4" stroke-linecap="round" stroke-linejoin="round"/>
<path d="M302 464.5C316.5 459.5 307.333 446.5 305.5 440L319.5 461L302 464.5Z" fill="#C94806"/>
<path d="M328 321.258C321.419 312.923 315.258 319.613 313 324C313 313.471 318.806 308.28 321.71 307L328 321.258Z" fill="#D14A00"/>
<path d="M304 416C281.132 443.391 241.805 436.812 225 430.098L229.158 422.546L256.184 427.077L279.572 424.56L304 416Z" fill="#CF4900"/>
<path d="M320.499 307.5C334.499 324.5 333.999 350 331.499 373.5C328.999 397 298.499 433.5 245.999 427.5C193.499 421.5 183.999 387 183.499 350C183.099 320.4 200 302 221.999 292C243.999 282 300.499 274 320.499 272C340.499 270 358.999 272.5 360.499 283.5C361.699 292.3 334.332 303.167 320.499 307.5ZM320.499 307.5C317.332 308.333 311.099 312.5 311.499 322.5" stroke="#712800" stroke-width="4" stroke-linecap="round" stroke-linejoin="round"/>
<path d="M221 490.5L222.5 479L231.5 491.5L254.5 519V521L246.5 522.5L234.5 519.5L228.5 513.5L221 490.5Z" fill="#FF5A00"/>
<path d="M230.437 502.862C224.922 495.488 229.782 492.848 232.901 492.449L222 481L221.5 490L223.332 495.755C225.489 497.866 229.931 502.243 230.437 502.862Z" fill="#C1460F"/>
<path d="M254 522L261.5 519.5L282 529L264.5 538.5L255 540L252.5 533L254 522Z" fill="#B54219"/>
<path d="M305 535L301.5 529L316.5 525L331 513.5V531L326.5 541L319 542.5L305 535Z" fill="#B54219"/>
<path d="M230 424.5C212.5 440 200 480 269.5 523.5C272.472 525.36 277.45 527.382 283.5 528.623M316.5 403C357.5 431 356.305 456 340.5 496.5C337.798 503.424 334.475 509.018 330.749 513.5M254.5 522C250.166 534.415 249.9 553.121 283.5 528.623M283.5 528.623C288.592 529.667 294.444 530.158 300.5 529.533M330.749 513.5C321.961 524.071 310.93 528.457 300.5 529.533M330.749 513.5C332.999 530.855 330.1 558.36 300.5 529.533" stroke="#712800" stroke-width="4" stroke-linecap="round" stroke-linejoin="round"/>
<path d="M253 521.842C242.42 521.379 243.608 515.088 245.525 512L230 515.474L241.5 523C244.95 522.614 252.08 521.842 253 521.842Z" fill="#C1460F"/>
<path d="M229.5 515.5C231.333 519 238.6 525.2 253 522M222 495.5C220.833 492.833 219.2 484.8 222 478" stroke="#712800" stroke-width="4" stroke-linecap="round" stroke-linejoin="round"/>
<path d="M223 516.5L243.5 512.5L281.5 504L285.5 496.5L297.5 489L317 482L324 472L320.5 460.5L278.5 472L274 481L267.5 486.5C260.167 488.167 245.3 491.5 244.5 491.5C243.7 491.5 226.167 494.833 217.5 496.5L211 501.5L210.5 510L215.5 516.5H223Z" fill="#858585"/>
<path d="M301.5 486C317.5 479.5 318 475 316.5 461.5L322.5 465L321.5 479L311.5 484L301.5 486Z" fill="#686469"/>
<path d="M286.5 476H292.5L290 485H284L286.5 476Z" fill="#3DC231"/>
<path d="M293.5 475H299.5L297 484H291L293.5 475Z" fill="#247CCD"/>
<path d="M302.5 473H308.5L306 482H300L302.5 473Z" fill="#D4AD21"/>
<path d="M320.5 461L283.259 469.867C280.242 470.585 277.699 472.602 276.312 475.375L273.508 480.983C271.926 484.148 268.969 486.403 265.498 487.091L218.876 496.331C216.682 496.766 214.683 497.885 213.166 499.529L212.827 499.896C208.185 504.925 209.717 513.009 215.878 515.989V515.989C217.902 516.969 220.194 517.252 222.395 516.794L281.5 504.5" stroke="#4F4F4F" stroke-width="4" stroke-linecap="round" stroke-linejoin="round"/>
<path d="M357 466L346.5 445.5L332.5 466.5L330.5 504L347.5 491.5L355.5 477.5L357 466Z" fill="#FF5A00"/>
<path d="M306.501 439C313.168 447.167 325.901 465.6 323.501 474C320.501 484.5 300.001 487.5 291.501 492C283.001 496.5 279.967 502.799 283.001 508C286.501 514 294.501 517.5 310.501 513C331.834 508.667 365.7 484.2 354.5 461C348.466 448.5 344.5 439 329 425.5" stroke="#712800" stroke-width="4" stroke-linecap="round" stroke-linejoin="round"/>
<path d="M243.5 514V512.5L244.5 506.5L250 502L260 501L268 504L270 511L267 516.5L255.5 522L248.5 516.5L243.5 514Z" fill="#FF5A00"/>
<path d="M253 522C271 518 273 511 268 504.5C263 498 249.5 501 247 503.5C244.5 506 243 507.5 243.5 512.5" stroke="#712800" stroke-width="4" stroke-linecap="round" stroke-linejoin="round"/>
<path d="M293.5 474.275L286.55 475.774C285.894 475.915 285.353 476.375 285.109 477L282.412 483.891C281.82 485.404 283.184 486.954 284.76 486.56L289.5 485.375M293.5 474.275L289.5 485.375M293.5 474.275L302.25 472.387M289.5 485.375L298.25 483.188M302.25 472.387L307.397 471.277C308.949 470.943 310.253 472.461 309.688 473.944L307.372 480.025C307.139 480.636 306.622 481.095 305.988 481.253L298.25 483.188M302.25 472.387L298.25 483.188" stroke="#712800" stroke-width="4" stroke-linecap="round" stroke-linejoin="round"/>
<circle cx="5.93125" cy="5.93125" r="5.93125" transform="matrix(-0.994526 0.104487 0.104487 0.994526 181.797 427)" fill="white"/>
<ellipse cx="23.5849" cy="10.316" rx="23.5849" ry="10.316" transform="matrix(-0.989715 0.143054 0.143054 0.989715 308.685 276)" fill="white"/>
<ellipse cx="8.81524" cy="3.85578" rx="8.81524" ry="3.85578" transform="matrix(-0.989715 0.143054 0.143054 0.989715 329.449 276)" fill="white"/>
<ellipse cx="10.0125" cy="5.61132" rx="10.0125" ry="5.61132" transform="matrix(-0.0574179 0.99835 0.99835 0.0574179 217.15 441)" fill="white"/>
<path d="M167.491 476.426L175.513 477.723C176.151 477.826 176.722 478.178 177.101 478.702C177.479 479.227 177.634 479.88 177.53 480.518C177.29 482.007 176.467 483.34 175.244 484.223C174.021 485.105 172.497 485.466 171.008 485.225L169.404 484.966C167.914 484.725 166.582 483.903 165.699 482.68C164.816 481.457 164.455 479.933 164.696 478.444C164.799 477.805 165.152 477.234 165.676 476.856C166.2 476.478 166.853 476.323 167.491 476.426Z" fill="white" stroke="#247CCD" stroke-width="4" stroke-linecap="round" stroke-linejoin="round"/>
<path d="M155.038 497.46L155.298 495.856C155.848 492.452 157.728 489.406 160.524 487.388C163.32 485.37 166.803 484.546 170.206 485.096C173.61 485.646 176.656 487.526 178.674 490.322C180.692 493.118 181.517 496.601 180.966 500.005L180.707 501.609C180.432 503.311 179.492 504.834 178.094 505.843C176.696 506.852 174.955 507.264 173.253 506.989L160.418 504.914C158.716 504.639 157.194 503.7 156.185 502.302C155.176 500.904 154.763 499.162 155.038 497.46Z" fill="white" stroke="#247CCD" stroke-width="4" stroke-linecap="round" stroke-linejoin="round"/>
<path d="M60.4889 471.887L60.4863 471.879C60.0686 470.599 59.401 469.415 58.5222 468.394C57.66 467.393 56.6114 466.57 55.435 465.97C52.8102 464.397 50.4637 461.343 48.5389 457.932C46.6416 454.57 45.2938 451.116 44.5647 449.045C44.5659 449.044 44.5672 449.044 44.5685 449.043C46.7086 448.355 47.8855 446.062 47.1969 443.922L46.2283 440.911C45.3921 438.311 42.6071 436.882 40.0078 437.718L30.0433 440.924C27.444 441.76 26.0148 444.545 26.851 447.144L27.8197 450.155C28.5082 452.296 30.8012 453.472 32.9414 452.784C32.9427 452.783 32.944 452.783 32.9452 452.783C33.5606 454.891 34.4796 458.483 34.8985 462.32C35.3235 466.214 35.1977 470.063 33.9825 472.871C33.3766 474.045 33.0048 475.325 32.888 476.641C32.7689 477.982 32.9172 479.334 33.3243 480.618L33.3268 480.625L44.5966 515.657C45.4232 518.226 47.2368 520.362 49.6383 521.595C52.0398 522.827 54.8325 523.055 57.4021 522.229L65.1869 519.724C67.7564 518.897 69.8924 517.084 71.1248 514.682C72.3573 512.281 72.5853 509.488 71.7586 506.919L60.4889 471.887Z" fill="white" stroke="#247CCD" stroke-width="4"/>
<path d="M127.437 518.915C127.422 518.894 127.406 518.873 127.389 518.853C126.189 517.354 123.929 515.627 120.883 514.998C117.763 514.353 114 514.899 109.953 517.684C107.736 519.152 104.487 521.953 101.693 525.72C98.8904 529.499 96.4493 534.381 96.1001 539.97C95.8906 543.322 96.1944 545.903 96.8943 547.954C97.6059 550.039 98.693 551.476 99.8814 552.571C100.721 553.345 101.679 553.991 102.434 554.501C102.668 554.658 102.882 554.803 103.068 554.934C103.946 555.556 104.438 556.028 104.729 556.621C105.926 559.065 108.933 562.515 113.4 564.291C118.003 566.12 123.962 566.093 130.742 561.798C132.774 560.51 132.534 557.907 131.225 556.59C130.024 555.382 129.251 553.956 129.025 552.287C128.797 550.606 129.101 548.509 130.352 545.938C132.536 541.45 137.764 540.467 141.466 541.224C142.52 541.44 143.526 541.05 144.169 540.374C144.837 539.672 145.218 538.524 144.713 537.365C143.801 535.274 142.138 532.536 139.434 531.416C137.725 530.707 136.055 529.719 134.799 528.783C135.135 528.056 135.012 527.171 134.43 526.561C133.838 525.941 132.937 525.782 132.187 526.107C131.589 525.29 130.913 524.282 130.229 523.226C129.846 522.633 129.456 522.019 129.088 521.439C128.401 520.357 127.791 519.394 127.437 518.915Z" fill="white" stroke="#3DC231" stroke-width="4" stroke-linecap="round" stroke-linejoin="round"/>
<path fill-rule="evenodd" clip-rule="evenodd" d="M166.727 531.659L173.392 526.639L179.995 525.53L181.119 535.51L181.139 535.516L181.122 535.539L181.125 535.568L181.105 535.562L175.146 543.647L169.98 539.389L166.713 531.711L166.672 531.7L166.699 531.679L166.686 531.648L166.727 531.659Z" fill="white"/>
<path d="M174.965 543.787C177.921 541.773 180.054 538.762 180.974 535.306C181.907 531.841 181.558 528.157 179.992 524.929M179.989 524.937C175.66 525.292 171.162 527.405 166.522 531.434C168.535 537.247 171.384 541.326 174.967 543.794M206.436 547.642C205.324 545.422 204.117 543.251 202.819 541.134C205.001 539.955 207.13 538.681 209.2 537.315M174.227 535.713L174.233 535.692M202.817 541.14L180.977 535.295M196.387 543.856L198.597 535.597M187.023 545.775L191.443 529.257" stroke="#3DC231" stroke-width="4" stroke-linecap="round" stroke-linejoin="round"/>
<path d="M22.0171 570.017L8.99896 575.64L16.3932 587.096L8.99896 611.153L27.2243 620.005L36.7015 631.669L75.7559 620.005L81.2756 593.657L69.7155 583.972V570.017L50.8652 560.54L27.2243 554.916L22.0171 570.017Z" fill="white"/>
<path fill-rule="evenodd" clip-rule="evenodd" d="M28.2392 552.081C27.6076 551.922 26.9397 551.998 26.3597 552.295C25.7798 552.591 25.3273 553.088 25.0865 553.693L19.5455 567.546L5.68681 573.099C5.30461 573.252 4.96275 573.491 4.68763 573.797C4.41252 574.104 4.21151 574.469 4.10014 574.866C3.98877 575.262 3.97 575.679 4.0453 576.084C4.1206 576.489 4.28795 576.871 4.53441 577.201L12.7206 588.121L7.06014 610.763C6.90519 611.386 6.97903 612.045 7.26825 612.619C7.55747 613.193 8.04291 613.645 8.63648 613.891L25.7911 621.044L34.2997 633.804C34.6157 634.278 35.0739 634.639 35.6083 634.835C36.1428 635.032 36.7258 635.053 37.2733 634.897L58.1717 628.926C58.2078 628.915 58.2436 628.903 58.2792 628.89L76.1921 622.919C76.6328 622.772 77.0279 622.513 77.3387 622.168C77.6495 621.823 77.8655 621.403 77.9655 620.949L83.9365 594.08C84.048 593.576 84.0121 593.051 83.8332 592.567C83.6543 592.084 83.3398 591.661 82.9274 591.351L72.0602 583.201V569.618C72.0595 569.119 71.9201 568.63 71.6575 568.206C71.3949 567.783 71.0196 567.44 70.5734 567.217L52.6605 558.261C52.4856 558.172 52.3014 558.102 52.1112 558.052L28.2273 552.081H28.2392ZM68.9732 587.602L76.9922 593.614L61.6886 606.362C61.3038 606.683 61.0163 607.105 60.8586 607.58L55.9624 622.25L46.9164 616.596C46.6169 616.409 46.2834 616.283 45.9351 616.225C45.5868 616.167 45.2305 616.178 44.8865 616.257C44.5424 616.337 44.2174 616.483 43.93 616.688C43.6426 616.894 43.3984 617.153 43.2114 617.453C43.0244 617.752 42.8982 618.086 42.8401 618.434C42.7819 618.782 42.7929 619.139 42.8725 619.483C42.9521 619.827 43.0986 620.152 43.3038 620.439C43.509 620.727 43.7687 620.971 44.0683 621.158L50.8871 625.415L37.6912 629.189L29.8096 617.384C29.5168 616.946 29.1015 616.603 28.6154 616.399L12.8341 609.825L17.7362 590.217H30.5679C30.9207 590.217 31.2701 590.147 31.5961 590.012C31.9221 589.877 32.2183 589.68 32.4678 589.43C32.7173 589.181 32.9153 588.884 33.0503 588.558C33.1853 588.232 33.2548 587.883 33.2548 587.53C33.2548 587.177 33.1853 586.828 33.0503 586.502C32.9153 586.176 32.7173 585.88 32.4678 585.63C32.2183 585.381 31.9221 585.183 31.5961 585.048C31.2701 584.913 30.9207 584.843 30.5679 584.843H16.9839L10.9353 576.783L21.695 572.478L38.6765 578.138C39.1974 578.311 39.7588 578.32 40.2851 578.164C40.8113 578.008 41.2773 577.695 41.6202 577.266L52.2067 564.035L66.6923 571.278V582.724L53.4546 588.02C53.0915 588.165 52.7645 588.388 52.4964 588.672C52.2282 588.957 52.0254 589.297 51.9022 589.668L48.9167 598.624C48.803 598.959 48.7566 599.314 48.7804 599.667C48.8042 600.021 48.8977 600.366 49.0554 600.683C49.213 601 49.4319 601.283 49.6993 601.515C49.9667 601.747 50.2773 601.925 50.6134 602.036C50.9495 602.148 51.3044 602.192 51.6576 602.166C52.0108 602.141 52.3555 602.045 52.6717 601.886C52.9879 601.726 53.2695 601.506 53.5001 601.237C53.7308 600.968 53.9061 600.656 54.0159 600.32L56.6013 592.546L68.9672 587.602H68.9732ZM46.7552 562.25L38.5988 572.448L25.1641 567.97L29.2065 557.867L46.7552 562.25ZM61.6826 622.095L73.0574 618.304L76.9922 600.606L65.713 610.004L61.6826 622.095Z" fill="#D5AD21"/>
<path d="M22.0171 570.017L8.99896 575.64L16.3932 587.096L8.99896 611.153L27.2243 620.005L36.7015 631.669L75.7559 620.005L81.2756 593.657L69.7155 583.972V570.017L50.8652 560.54L27.2243 554.916L22.0171 570.017Z" stroke="#D5AD21"/>
<path fill-rule="evenodd" clip-rule="evenodd" d="M28.2392 552.081C27.6076 551.922 26.9397 551.998 26.3597 552.295C25.7798 552.591 25.3273 553.088 25.0865 553.693L19.5455 567.546L5.68681 573.099C5.30461 573.252 4.96275 573.491 4.68763 573.797C4.41252 574.104 4.21151 574.469 4.10014 574.866C3.98877 575.262 3.97 575.679 4.0453 576.084C4.1206 576.489 4.28795 576.871 4.53441 577.201L12.7206 588.121L7.06014 610.763C6.90519 611.386 6.97903 612.045 7.26825 612.619C7.55747 613.193 8.04291 613.645 8.63648 613.891L25.7911 621.044L34.2997 633.804C34.6157 634.278 35.0739 634.639 35.6083 634.835C36.1428 635.032 36.7258 635.053 37.2733 634.897L58.1717 628.926C58.2078 628.915 58.2436 628.903 58.2792 628.89L76.1921 622.919C76.6328 622.772 77.0279 622.513 77.3387 622.168C77.6495 621.823 77.8655 621.403 77.9655 620.949L83.9365 594.08C84.048 593.576 84.0121 593.051 83.8332 592.567C83.6543 592.084 83.3398 591.661 82.9274 591.351L72.0602 583.201V569.618C72.0595 569.119 71.9201 568.63 71.6575 568.206C71.3949 567.783 71.0196 567.44 70.5734 567.217L52.6605 558.261C52.4856 558.172 52.3014 558.102 52.1112 558.052L28.2273 552.081H28.2392ZM68.9732 587.602L76.9922 593.614L61.6886 606.362C61.3038 606.683 61.0163 607.105 60.8586 607.58L55.9624 622.25L46.9164 616.596C46.6169 616.409 46.2834 616.283 45.9351 616.225C45.5868 616.167 45.2305 616.178 44.8865 616.257C44.5424 616.337 44.2174 616.483 43.93 616.688C43.6426 616.894 43.3984 617.153 43.2114 617.453C43.0244 617.752 42.8982 618.086 42.8401 618.434C42.7819 618.782 42.7929 619.139 42.8725 619.483C42.9521 619.827 43.0986 620.152 43.3038 620.439C43.509 620.727 43.7687 620.971 44.0683 621.158L50.8871 625.415L37.6912 629.189L29.8096 617.384C29.5168 616.946 29.1015 616.603 28.6154 616.399L12.8341 609.825L17.7362 590.217H30.5679C30.9207 590.217 31.2701 590.147 31.5961 590.012C31.9221 589.877 32.2183 589.68 32.4678 589.43C32.7173 589.181 32.9153 588.884 33.0503 588.558C33.1853 588.232 33.2548 587.883 33.2548 587.53C33.2548 587.177 33.1853 586.828 33.0503 586.502C32.9153 586.176 32.7173 585.88 32.4678 585.63C32.2183 585.381 31.9221 585.183 31.5961 585.048C31.2701 584.913 30.9207 584.843 30.5679 584.843H16.9839L10.9353 576.783L21.695 572.478L38.6765 578.138C39.1974 578.311 39.7588 578.32 40.2851 578.164C40.8113 578.008 41.2773 577.695 41.6202 577.266L52.2067 564.035L66.6923 571.278V582.724L53.4546 588.02C53.0915 588.165 52.7645 588.388 52.4964 588.672C52.2282 588.957 52.0254 589.297 51.9022 589.668L48.9167 598.624C48.803 598.959 48.7566 599.314 48.7804 599.667C48.8042 600.021 48.8977 600.366 49.0554 600.683C49.213 601 49.4319 601.283 49.6993 601.515C49.9667 601.747 50.2773 601.925 50.6134 602.036C50.9495 602.148 51.3044 602.192 51.6576 602.166C52.0108 602.141 52.3555 602.045 52.6717 601.886C52.9879 601.726 53.2695 601.506 53.5001 601.237C53.7308 600.968 53.9061 600.656 54.0159 600.32L56.6013 592.546L68.9672 587.602H68.9732ZM46.7552 562.25L38.5988 572.448L25.1641 567.97L29.2065 557.867L46.7552 562.25ZM61.6826 622.095L73.0574 618.304L76.9922 600.606L65.713 610.004L61.6826 622.095Z" stroke="#D5AD21"/>
<path d="M114.827 433.576L102.813 444.409L97.4289 450.318L99.5299 453.404L104.979 469.226L107.474 480.06L121.984 474.085L130.782 469.226L126.711 450.318L118.57 435.283L114.827 433.576Z" fill="white"/>
<path d="M131.841 470.601L108.223 481.757C107.996 481.863 107.747 481.917 107.495 481.914C107.244 481.911 106.996 481.851 106.771 481.74C106.545 481.628 106.348 481.467 106.193 481.269C106.038 481.071 105.93 480.84 105.877 480.594C105.871 480.576 103.982 471.794 101.176 463.04C100.22 460.039 98.317 455.617 97.1984 453.012L100.232 451.58C103.876 460.037 107.593 473.168 108.679 477.838L129.207 468.154C128.576 465.398 126.96 458.638 124.797 451.89C123.4 447.517 121.764 443.15 120.088 439.989C118.466 436.728 116.52 435.125 116.085 435.34C113.498 435.285 111.68 437.639 110.455 440.656C109.94 441.983 109.54 443.352 109.258 444.748C109.025 445.874 108.954 446.581 108.949 446.581C108.92 446.866 108.817 447.138 108.651 447.371C108.485 447.604 108.261 447.79 108.001 447.911L84.389 459.061C84.12 459.188 83.8222 459.241 83.5258 459.216C83.2295 459.19 82.9452 459.086 82.7019 458.915C82.4601 458.743 82.2685 458.509 82.1469 458.237C82.0252 457.966 81.9778 457.668 82.0096 457.372C82.0242 457.288 82.3649 454.002 83.735 450.564C84.686 448.159 86.2984 445.429 88.9202 444.05L112.525 432.882L112.536 432.904C113.56 432.366 114.722 432.016 116.083 432C119.357 432.213 121.143 435.039 123.039 438.422C128.505 448.789 132.732 468.666 132.765 468.739C132.846 469.107 132.799 469.492 132.632 469.829C132.465 470.167 132.188 470.438 131.847 470.597L131.841 470.601Z" fill="#D5AD21"/>
<path d="M114.827 433.576L102.813 444.409L97.4289 450.318L99.5299 453.404L104.979 469.226L107.474 480.06L121.984 474.085L130.782 469.226L126.711 450.318L118.57 435.283L114.827 433.576Z" stroke="#D5AD21"/>
<path d="M131.841 470.601L108.223 481.757C107.996 481.863 107.747 481.917 107.495 481.914C107.244 481.911 106.996 481.851 106.771 481.74C106.545 481.628 106.348 481.467 106.193 481.269C106.038 481.071 105.93 480.84 105.877 480.594C105.871 480.576 103.982 471.794 101.176 463.04C100.22 460.039 98.317 455.617 97.1984 453.012L100.232 451.58C103.876 460.037 107.593 473.168 108.679 477.838L129.207 468.154C128.576 465.398 126.96 458.638 124.797 451.89C123.4 447.517 121.764 443.15 120.088 439.989C118.466 436.728 116.52 435.125 116.085 435.34C113.498 435.285 111.68 437.639 110.455 440.656C109.94 441.983 109.54 443.352 109.258 444.748C109.025 445.874 108.954 446.581 108.949 446.581C108.92 446.866 108.817 447.138 108.651 447.371C108.485 447.604 108.261 447.79 108.001 447.911L84.389 459.061C84.12 459.188 83.8222 459.241 83.5258 459.216C83.2295 459.19 82.9452 459.086 82.7019 458.915C82.4601 458.743 82.2685 458.509 82.1469 458.237C82.0252 457.966 81.9778 457.668 82.0096 457.372C82.0242 457.288 82.3649 454.002 83.735 450.564C84.686 448.159 86.2984 445.429 88.9202 444.05L112.525 432.882L112.536 432.904C113.56 432.366 114.722 432.016 116.083 432C119.357 432.213 121.143 435.039 123.039 438.422C128.505 448.789 132.732 468.666 132.765 468.739C132.846 469.107 132.799 469.492 132.632 469.829C132.465 470.167 132.188 470.438 131.847 470.597L131.841 470.601Z" stroke="#D5AD21"/>
<path opacity="0.7" d="M49.0932 376.099L47.9852 393.382L64.9016 397.092L47.6186 395.984L43.9084 412.901L45.0164 395.618L28.1 391.908L45.383 393.016L49.0932 376.099Z" fill="white"/>
<path opacity="0.6" d="M129.155 410.408L134.251 422.157L123.408 428.972L135.157 423.876L141.972 434.719L136.876 422.97L147.719 416.155L135.97 421.251L129.155 410.408Z" fill="white"/>
<path opacity="0.4" d="M81.1649 491.582L89.846 495.2L87.5832 504.329L91.2012 495.648L100.33 497.911L91.6487 494.293L93.9116 485.164L90.2935 493.845L81.1649 491.582Z" fill="white"/>
<path opacity="0.6" d="M103.56 614.21L124.763 606.887L135.21 626.738L127.887 605.535L147.738 595.089L126.535 602.411L116.089 582.56L123.411 603.763L103.56 614.21Z" fill="white"/>
<path opacity="0.2" d="M15.7325 728.474L12.0401 691.051L48.4738 681.738L11.0506 685.431L1.73826 648.997L5.43069 686.42L-31.003 695.733L6.42024 692.04L15.7325 728.474Z" fill="white"/>
<path opacity="0.3" d="M213.043 584.475L204.098 572.607L214.476 561.969L202.608 570.914L191.97 560.536L200.915 572.404L190.537 583.042L202.405 574.097L213.043 584.475Z" fill="white"/>
<path d="M220.5 507.649L213.326 498.131L221.649 489.599L212.131 496.773L203.6 488.45L210.773 497.968L202.45 506.499L211.968 499.326L220.5 507.649Z" fill="white"/>
<path opacity="0.2" d="M52.0694 369.493L18.2114 324.571L57.4935 284.306L12.5713 318.164L-27.694 278.882L6.16407 323.804L-33.118 364.069L11.8042 330.211L52.0694 369.493Z" fill="white"/>
<path opacity="0.7" d="M17.3157 526.411L4.23589 509.057L19.4111 493.502L2.05703 506.582L-13.498 491.407L-0.418157 508.761L-15.5934 524.316L1.7607 511.236L17.3157 526.411Z" fill="white"/>
<g filter="url(#filter3_f_326_545)">
<circle cx="364" cy="860" r="215" fill="#5F2E6B"/>
</g>
</g>
<defs>
<filter id="filter0_f_326_545" x="-132" y="27" width="458" height="458" filterUnits="userSpaceOnUse" color-interpolation-filters="sRGB">
<feFlood flood-opacity="0" result="BackgroundImageFix"/>
<feBlend mode="normal" in="SourceGraphic" in2="BackgroundImageFix" result="shape"/>
<feGaussianBlur stdDeviation="50" result="effect1_foregroundBlur_326_545"/>
</filter>
<filter id="filter1_f_326_545" x="-14" y="-312" width="764" height="764" filterUnits="userSpaceOnUse" color-interpolation-filters="sRGB">
<feFlood flood-opacity="0" result="BackgroundImageFix"/>
<feBlend mode="normal" in="SourceGraphic" in2="BackgroundImageFix" result="shape"/>
<feGaussianBlur stdDeviation="133" result="effect1_foregroundBlur_326_545"/>
</filter>
<filter id="filter2_f_326_545" x="-114" y="62" width="424" height="244" filterUnits="userSpaceOnUse" color-interpolation-filters="sRGB">
<feFlood flood-opacity="0" result="BackgroundImageFix"/>
<feBlend mode="normal" in="SourceGraphic" in2="BackgroundImageFix" result="shape"/>
<feGaussianBlur stdDeviation="50" result="effect1_foregroundBlur_326_545"/>
</filter>
<filter id="filter3_f_326_545" x="-264" y="232" width="1256" height="1256" filterUnits="userSpaceOnUse" color-interpolation-filters="sRGB">
<feFlood flood-opacity="0" result="BackgroundImageFix"/>
<feBlend mode="normal" in="SourceGraphic" in2="BackgroundImageFix" result="shape"/>
<feGaussianBlur stdDeviation="206.5" result="effect1_foregroundBlur_326_545"/>
</filter>
<linearGradient id="paint0_linear_326_545" x1="97" y1="35" x2="97" y2="99" gradientUnits="userSpaceOnUse">
<stop stop-color="#2E1734"/>
<stop offset="1" stop-color="#5F2D6B" stop-opacity="0"/>
</linearGradient>
<linearGradient id="paint1_linear_326_545" x1="58" y1="190.5" x2="-8" y2="166" gradientUnits="userSpaceOnUse">
<stop/>
<stop offset="1" stop-opacity="0"/>
</linearGradient>
<linearGradient id="paint2_linear_326_545" x1="104.852" y1="267.638" x2="41.2443" y2="237.466" gradientUnits="userSpaceOnUse">
<stop/>
<stop offset="1" stop-opacity="0"/>
</linearGradient>
<linearGradient id="paint3_linear_326_545" x1="217" y1="509" x2="-37" y2="575" gradientUnits="userSpaceOnUse">
<stop stop-color="#D9D9D9"/>
<stop offset="1" stop-color="#D9D9D9" stop-opacity="0"/>
</linearGradient>
<radialGradient id="paint4_angular_326_545" cx="0" cy="0" r="1" gradientUnits="userSpaceOnUse" gradientTransform="translate(116.5 554.5) rotate(141.122) scale(205.526 109.059)">
<stop offset="0.281959" stop-color="#3DC231"/>
<stop offset="0.665568" stop-color="#247CCD"/>
<stop offset="0.902106" stop-color="#D4AD21"/>
</radialGradient>
<clipPath id="clip0_326_545">
<rect width="390" height="844" fill="white"/>
</clipPath>
</defs>
</svg>
