<svg width="40" height="40" viewBox="0 0 40 40" fill="none" xmlns="http://www.w3.org/2000/svg">
<path d="M12.9999 3.33325H26.9999C32.3333 3.33325 36.6666 7.66659 36.6666 12.9999V26.9999C36.6666 29.5637 35.6481 32.0224 33.8353 33.8353C32.0224 35.6481 29.5637 36.6666 26.9999 36.6666H12.9999C7.66659 36.6666 3.33325 32.3333 3.33325 26.9999V12.9999C3.33325 10.4362 4.3517 7.9774 6.16455 6.16455C7.9774 4.3517 10.4362 3.33325 12.9999 3.33325ZM12.6666 6.66659C11.0753 6.66659 9.54916 7.29873 8.42394 8.42394C7.29873 9.54916 6.66659 11.0753 6.66659 12.6666V27.3333C6.66659 30.6499 9.34992 33.3333 12.6666 33.3333H27.3333C28.9245 33.3333 30.4507 32.7011 31.5759 31.5759C32.7011 30.4507 33.3333 28.9245 33.3333 27.3333V12.6666C33.3333 9.34992 30.6499 6.66659 27.3333 6.66659H12.6666ZM28.7499 9.16658C29.3025 9.16658 29.8324 9.38608 30.2231 9.77678C30.6138 10.1675 30.8333 10.6974 30.8333 11.2499C30.8333 11.8025 30.6138 12.3324 30.2231 12.7231C29.8324 13.1138 29.3025 13.3333 28.7499 13.3333C28.1974 13.3333 27.6675 13.1138 27.2768 12.7231C26.8861 12.3324 26.6666 11.8025 26.6666 11.2499C26.6666 10.6974 26.8861 10.1675 27.2768 9.77678C27.6675 9.38608 28.1974 9.16658 28.7499 9.16658ZM19.9999 11.6666C22.2101 11.6666 24.3297 12.5446 25.8925 14.1074C27.4553 15.6702 28.3333 17.7898 28.3333 19.9999C28.3333 22.2101 27.4553 24.3297 25.8925 25.8925C24.3297 27.4553 22.2101 28.3333 19.9999 28.3333C17.7898 28.3333 15.6702 27.4553 14.1074 25.8925C12.5446 24.3297 11.6666 22.2101 11.6666 19.9999C11.6666 17.7898 12.5446 15.6702 14.1074 14.1074C15.6702 12.5446 17.7898 11.6666 19.9999 11.6666ZM19.9999 14.9999C18.6738 14.9999 17.4021 15.5267 16.4644 16.4644C15.5267 17.4021 14.9999 18.6738 14.9999 19.9999C14.9999 21.326 15.5267 22.5978 16.4644 23.5355C17.4021 24.4731 18.6738 24.9999 19.9999 24.9999C21.326 24.9999 22.5978 24.4731 23.5355 23.5355C24.4731 22.5978 24.9999 21.326 24.9999 19.9999C24.9999 18.6738 24.4731 17.4021 23.5355 16.4644C22.5978 15.5267 21.326 14.9999 19.9999 14.9999Z" fill="white"/>
</svg>
