<svg width="40" height="40" viewBox="0 0 40 40" fill="none" xmlns="http://www.w3.org/2000/svg">
<path d="M27.2666 23.3333C27.3999 22.2333 27.4999 21.1333 27.4999 19.9999C27.4999 18.8666 27.3999 17.7666 27.2666 16.6666H32.8999C33.1666 17.7333 33.3333 18.8499 33.3333 19.9999C33.3333 21.1499 33.1666 22.2666 32.8999 23.3333M24.3166 32.5999C25.3166 30.7499 26.0833 28.7499 26.6166 26.6666H31.5333C29.9185 29.447 27.3568 31.5532 24.3166 32.5999ZM23.8999 23.3333H16.0999C15.9333 22.2333 15.8333 21.1333 15.8333 19.9999C15.8333 18.8666 15.9333 17.7499 16.0999 16.6666H23.8999C24.0499 17.7499 24.1666 18.8666 24.1666 19.9999C24.1666 21.1333 24.0499 22.2333 23.8999 23.3333ZM19.9999 33.2666C18.6166 31.2666 17.4999 29.0499 16.8166 26.6666H23.1833C22.4999 29.0499 21.3833 31.2666 19.9999 33.2666ZM13.3333 13.3333H8.46659C10.0647 10.5453 12.6246 8.43573 15.6666 7.39992C14.6666 9.24992 13.9166 11.2499 13.3333 13.3333ZM8.46659 26.6666H13.3333C13.9166 28.7499 14.6666 30.7499 15.6666 32.5999C12.631 31.5527 10.0747 29.4461 8.46659 26.6666ZM7.09992 23.3333C6.83325 22.2666 6.66659 21.1499 6.66659 19.9999C6.66659 18.8499 6.83325 17.7333 7.09992 16.6666H12.7333C12.5999 17.7666 12.4999 18.8666 12.4999 19.9999C12.4999 21.1333 12.5999 22.2333 12.7333 23.3333M19.9999 6.71659C21.3833 8.71659 22.4999 10.9499 23.1833 13.3333H16.8166C17.4999 10.9499 18.6166 8.71659 19.9999 6.71659ZM31.5333 13.3333H26.6166C26.095 11.269 25.3225 9.27641 24.3166 7.39992C27.3833 8.44992 29.9333 10.5666 31.5333 13.3333ZM19.9999 3.33325C10.7833 3.33325 3.33325 10.8333 3.33325 19.9999C3.33325 24.4202 5.0892 28.6594 8.21481 31.785C9.76245 33.3327 11.5998 34.5603 13.6219 35.3979C15.644 36.2355 17.8112 36.6666 19.9999 36.6666C24.4202 36.6666 28.6594 34.9106 31.785 31.785C34.9106 28.6594 36.6666 24.4202 36.6666 19.9999C36.6666 17.8112 36.2355 15.644 35.3979 13.6219C34.5603 11.5998 33.3327 9.76245 31.785 8.21481C30.2374 6.66716 28.4001 5.4395 26.378 4.60193C24.3559 3.76435 22.1886 3.33325 19.9999 3.33325Z" fill="white"/>
</svg>
