<svg width="243" height="56" viewBox="0 0 243 56" fill="none" xmlns="http://www.w3.org/2000/svg">
<path d="M149.794 11.4594H155.26V43.91H149.794V11.4594ZM196.297 43.91H201.763V11.4594H196.297V43.91ZM230.801 31.5099L236.306 43.91H242.095L227.188 11.4594H222.09L207.234 43.91H212.928L218.433 31.5099L224.615 17.6102L230.801 31.5099ZM90.9979 11.1005C94.3188 11.1005 97.5651 12.075 100.326 13.9007C103.087 15.7265 105.239 18.3215 106.51 21.3575C107.781 24.3936 108.113 27.7343 107.465 30.9572C106.816 34.1801 105.217 37.1403 102.868 39.4636C100.52 41.7869 97.5276 43.3688 94.2704 44.0093C91.0132 44.6498 87.6372 44.3201 84.5693 43.0619C81.5015 41.8037 78.8797 39.6735 77.0354 36.9407C75.1911 34.2079 74.2073 30.9954 74.2083 27.7093C74.2083 25.5278 74.6426 23.3676 75.4864 21.3522C76.3302 19.3368 77.567 17.5057 79.1261 15.9633C80.6853 14.421 82.5362 13.1977 84.5732 12.3633C86.6102 11.5289 88.7933 11.0998 90.9979 11.1005V11.1005ZM90.9979 38.949C93.2447 38.95 95.4413 38.2916 97.3098 37.0571C99.1784 35.8227 100.635 34.0676 101.496 32.0139C102.356 29.9602 102.582 27.7001 102.144 25.5195C101.706 23.3389 100.625 21.3357 99.0365 19.7633C97.4481 18.1909 95.4242 17.12 93.2207 16.6859C91.0172 16.2518 88.7331 16.4741 86.6572 17.3247C84.5814 18.1752 82.8071 19.6159 81.5588 21.4643C80.3105 23.3128 79.6441 25.4861 79.6441 27.7093C79.6435 29.1855 79.9368 30.6473 80.5074 32.0113C81.078 33.3752 81.9147 34.6146 82.9696 35.6584C84.0245 36.7022 85.2769 37.5301 86.6553 38.0947C88.0337 38.6593 89.511 38.9496 91.0029 38.949H90.9979ZM183.358 33.339C185.314 32.5919 187.002 31.2903 188.213 29.5973C189.514 27.6584 190.178 25.3697 190.116 23.0433C190.116 19.4491 188.869 16.5876 186.399 14.5274C183.93 12.4673 180.576 11.4594 176.357 11.4594H163.463V16.268H176.218C178.986 16.268 181.113 16.9268 182.539 18.0823C183.965 19.2377 184.65 20.8553 184.65 23.0433C184.65 25.2312 183.96 26.8587 182.539 28.0239C181.118 29.1892 178.986 29.794 176.218 29.794H163.463V43.91H168.929V34.5682H176.357C176.805 34.5682 177.406 34.5436 178.136 34.4944L184.75 43.91H190.832L183.358 33.339ZM136.125 11.4594V34.1699L117.656 11.4594H113.248V14.4881L121.954 25.1968L137.183 43.91H141.59V11.4594H136.125ZM113.268 23.1219V43.91H118.734V29.8579L113.268 23.1219Z" fill="white"/>
<path d="M30.1528 11.1674C26.8914 11.1674 23.7032 12.1327 20.9914 13.9414C18.2796 15.7501 16.166 18.3209 14.9179 21.3287C13.6698 24.3365 13.3432 27.6461 13.9795 30.8391C14.6157 34.0322 16.1863 36.9652 18.4925 39.2672C20.7987 41.5692 23.7369 43.1369 26.9357 43.7721C30.1345 44.4072 33.4501 44.0812 36.4633 42.8354C39.4765 41.5895 42.0519 39.4797 43.8639 36.7728C45.6759 34.0659 46.643 30.8834 46.643 27.6279C46.643 25.4662 46.2165 23.3258 45.3877 21.3287C44.559 19.3316 43.3444 17.517 41.8131 15.9885C40.2819 14.46 38.464 13.2476 36.4633 12.4203C34.4627 11.5931 32.3183 11.1674 30.1528 11.1674V11.1674ZM30.1528 38.615C27.9771 38.6166 25.8498 37.974 24.04 36.7686C22.2302 35.5632 20.8191 33.849 19.9854 31.843C19.1517 29.837 18.9327 27.6292 19.3562 25.499C19.7797 23.3687 20.8266 21.4117 22.3645 19.8754C23.9024 18.3392 25.8622 17.2927 27.996 16.8684C30.1297 16.4442 32.3417 16.6611 34.3519 17.4918C36.3622 18.3226 38.0805 19.7298 39.2894 21.5355C40.4983 23.3411 41.1436 25.4641 41.1436 27.6359C41.1436 30.5456 39.9856 33.3361 37.9244 35.3936C35.8633 37.451 33.0677 38.6069 30.1528 38.6069" fill="white"/>
<path d="M52.0778 30.3726C51.3829 35.6863 48.7751 40.5662 44.7408 44.1017C40.7065 47.6372 35.5214 49.5868 30.1529 49.5868C24.7844 49.5868 19.5993 47.6372 15.565 44.1017C11.5308 40.5662 8.92288 35.6863 8.22799 30.3726H2.65576C3.35689 37.1651 6.55631 43.4568 11.6353 48.0311C16.7143 52.6054 23.3121 55.1374 30.1529 55.1374C36.9937 55.1374 43.5915 52.6054 48.6705 48.0311C53.7495 43.4568 56.9489 37.1651 57.65 30.3726H52.0778Z" fill="white"/>
<path d="M8.22799 24.8911C8.92288 19.5774 11.5308 14.6975 15.565 11.162C19.5993 7.62646 24.7844 5.67682 30.1529 5.67682C35.5214 5.67682 40.7065 7.62646 44.7408 11.162C48.7751 14.6975 51.3829 19.5774 52.0778 24.8911H57.65C56.9489 18.0986 53.7495 11.8068 48.6705 7.23252C43.5915 2.65819 36.9937 0.126221 30.1529 0.126221C23.3121 0.126221 16.7143 2.65819 11.6353 7.23252C6.55631 11.8068 3.35689 18.0986 2.65576 24.8911H8.22799Z" fill="white"/>
</svg>
