<svg width="83" height="102" viewBox="0 0 83 102" fill="none" xmlns="http://www.w3.org/2000/svg">
<path d="M11.5359 57.0066C14.8017 50.809 19.7053 50.2654 21.9992 51.9298C22.696 52.7057 25.3915 53.3895 28.1191 49.9179C30.1284 47.3606 33.931 46.3533 36.1007 50.6928C38.8749 56.241 38.1155 72.6228 36.1007 77.8147C34.6713 81.4983 29.9216 83.7979 24.0997 83.7979C21.9264 83.6824 17.3775 83.662 13.5939 80.547C8.81678 76.6142 6.70832 66.1678 11.5359 57.0066Z" fill="#4EE141" stroke="#309427" stroke-width="4.21262"/>
<circle cx="11.244" cy="54.3634" r="2.80841" fill="#00EEFD"/>
<circle cx="7.87384" cy="60.6823" r="2.80841" fill="#00EEFD"/>
<circle cx="73.3279" cy="60.3039" r="3.3701" transform="rotate(1.32739 73.3279 60.3039)" fill="#07FD00"/>
<path d="M61.3676 61.2205C62.8855 59.3595 65.3569 58.7852 67.6054 58.8372" stroke="#036500" stroke-width="4.21262" stroke-linecap="round"/>
<circle cx="73.3316" cy="60.2334" r="4.98493" transform="rotate(1.32739 73.3316 60.2334)" stroke="#048C00" stroke-width="4.21262"/>
<circle cx="75.3496" cy="59.7569" r="1.68505" transform="rotate(8.63604 75.3496 59.7569)" fill="white"/>
<path d="M73.753 29.8033C73.753 46.9035 61.5365 60.766 43.1178 60.766C24.6992 60.766 14.4955 48.6588 14.4955 31.5585C16.2212 22.152 13.1615 14.5676 4.52567 10.2848C0.588394 5.08036 1.12427 2.40011 7.05318 2C25.4718 2 73.753 12.703 73.753 29.8033Z" fill="#FF5A00"/>
<path d="M29.6609 25.8715L35.4181 24.5375L43.2817 25.8715L58.5173 26.9948L71.5999 24.8183L71.9275 35.4201L70.5467 42.7219L64.2746 45.1793H47.9858L33.1714 42.7219L26.9227 37.9476L25.7993 30.6458L29.6609 25.8715Z" fill="#00EEFD"/>
<path d="M34.5756 23.695L40.8939 25.7874L27.9758 38.5093L23.6227 33.5331L34.5756 23.695Z" fill="white"/>
<path d="M46.161 26.0258L52.4793 28.1183L36.1378 45.1092L31.7847 40.133L46.161 26.0258Z" fill="white"/>
<path d="M21.8441 81.6887L27.7418 90.3246V97.2052L31.0651 100.294L33.9437 98.3286L36.1904 97.2052L39.8179 94.8181H43.2115L48.1262 99.4519L52.7366 98.3286L53.5324 90.3246L56.1302 86.7439L60.7641 78.8101L64.1107 73.3337L62.8704 65.3297L58.2832 58.5895L52.7366 59.4321L39.8179 61.0469L25.5652 57.1151L18.825 63.9957L17.8421 71.6486L21.8441 81.6887Z" fill="#FF5A00"/>
<path d="M70.734 25.8135C63.6736 29.4324 50.5555 29.5218 36.8768 25.7238C34.3924 25.034 31.6876 25.3735 29.526 26.7791V26.7791C24.6244 29.9661 24.3149 37.1133 29.0011 40.6092V40.6092C29.8153 41.2165 30.7267 41.6728 31.7066 41.9404C42.0435 44.7637 59.5162 48.056 70.0312 41.5278" stroke="#005A60" stroke-width="4.21262" stroke-linecap="round"/>
<path d="M71.9977 30.5363C71.9977 47.7093 63.962 61.9817 45.4478 60.999C28.4769 60.999 10.9908 47.5926 14.7193 29.9046C16.3416 19.3829 12.7265 14.5329 6.55503 11.2339C-0.323482 7.55699 3.01937 1.67713 9.83358 2.24951C30.2764 3.96656 71.9977 13.3634 71.9977 30.5363Z" stroke="#712800" stroke-width="4.21262"/>
<path d="M25.4745 55.8514C18.5178 59.3564 15.7515 67.7834 19.0246 75.7633C21.6938 82.271 25.9302 88.7787 32.2766 91.9195V91.9195C37.4621 94.496 43.5573 94.4845 48.7331 91.8885L49.1834 91.6627C56.8899 87.8489 61.7293 80.5547 62.7348 72.1311C63.5146 65.5987 60.8867 61.9983 55.9592 58.4468" stroke="#712800" stroke-width="4.21262"/>
<path d="M44.2196 66.6506L33.4336 66.1095C29.2477 65.8995 26.1004 69.8739 27.264 73.9002C27.9508 76.2764 30.0037 78.0032 32.4623 78.2728L39.2816 79.0207L61.7205 82.4685C64.4843 82.8932 66.9136 80.6122 66.6636 77.8272C66.2873 75.8199 64.6557 74.2866 62.6289 74.0356L50.9062 72.5837C50.7904 72.5694 50.6844 72.5114 50.6098 72.4217L46.9451 68.0135C46.2672 67.198 45.2787 66.7037 44.2196 66.6506Z" fill="#4EE141" stroke="#309427" stroke-width="4.21262" stroke-linecap="round"/>
<path d="M29.3118 63.1533L30.716 65.8213L28.1884 68.419L28.6097 70.4551L31.4883 72.6317L41.388 74.4571L45.1091 76.7039L44.6176 80.7058L40.5455 82.2505L31.4883 81.3377L21.3078 78.1081L18.2186 70.4551L29.3118 63.1533Z" fill="#FF5A00"/>
<path d="M17.5847 69.5424C17.5847 81.8292 39.1395 83.9355 43.2117 81.1973C45.1481 79.8953 46.0201 74.8082 40.614 74.1763C35.2101 73.5447 29.7826 71.8608 29.7779 71.8594C29.7777 71.8593 29.7778 71.8593 29.7777 71.8593V71.8593C28.0955 71.1476 27.7447 68.9176 29.127 67.7238L30.7608 66.3127" stroke="#712800" stroke-width="4.21262" stroke-linecap="round"/>
<path d="M27.0697 90.2837C26.6931 95.9543 28.4579 104.731 38.5306 94.4703" stroke="#712800" stroke-width="4.21262" stroke-linecap="round"/>
<path d="M53.5782 90.2837C53.9548 95.9543 52.1899 104.731 42.1172 94.4703" stroke="#712800" stroke-width="4.21262" stroke-linecap="round"/>
<ellipse cx="19.3803" cy="7.1289" rx="6.74175" ry="2.94883" transform="rotate(10.863 19.3803 7.1289)" fill="white"/>
<ellipse cx="60.2649" cy="68.5396" rx="3.35706" ry="1.46837" transform="rotate(80.0114 60.2649 68.5396)" fill="white"/>
</svg>
